<svg class="main-svg" xmlns="http://www.w3.org/2000/svg" xmlns:xlink="http://www.w3.org/1999/xlink" width="700" height="500" style="" viewBox="0 0 700 500"><rect x="0" y="0" width="700" height="500" style="fill: rgb(255, 255, 255); fill-opacity: 1;"/><defs id="defs-222626"><g class="clips"><clipPath id="clip222626xyplot" class="plotclip"><rect width="430" height="320"/></clipPath><clipPath class="axesclip" id="clip222626x"><rect x="80" y="0" width="430" height="500"/></clipPath><clipPath class="axesclip" id="clip222626y"><rect x="0" y="100" width="700" height="320"/></clipPath><clipPath class="axesclip" id="clip222626xy"><rect x="80" y="100" width="430" height="320"/></clipPath></g><g class="gradients"/><g class="patterns"/></defs><g class="bglayer"><rect class="bg" x="80" y="100" width="430" height="320" style="fill: rgb(237, 237, 237); fill-opacity: 1; stroke-width: 0;"/></g><g class="layer-below"><g class="imagelayer"/><g class="shapelayer"/></g><g class="cartesianlayer"><g class="subplot xy"><g class="layer-subplot"><g class="shapelayer"/><g class="imagelayer"/></g><g class="gridlayer"><g class="x"><path class="xgrid crisp" transform="translate(84.16,0)" d="M0,100v320" style="stroke: rgb(255, 255, 255); stroke-opacity: 1; stroke-width: 1px;"/><path class="xgrid crisp" transform="translate(208.77,0)" d="M0,100v320" style="stroke: rgb(255, 255, 255); stroke-opacity: 1; stroke-width: 1px;"/><path class="xgrid crisp" transform="translate(333.39,0)" d="M0,100v320" style="stroke: rgb(255, 255, 255); stroke-opacity: 1; stroke-width: 1px;"/><path class="xgrid crisp" transform="translate(458,0)" d="M0,100v320" style="stroke: rgb(255, 255, 255); stroke-opacity: 1; stroke-width: 1px;"/></g><g class="y"><path class="ygrid crisp" transform="translate(0,368.42)" d="M80,0h430" style="stroke: rgb(255, 255, 255); stroke-opacity: 1; stroke-width: 1px;"/><path class="ygrid crisp" transform="translate(0,332.69)" d="M80,0h430" style="stroke: rgb(255, 255, 255); stroke-opacity: 1; stroke-width: 1px;"/><path class="ygrid crisp" transform="translate(0,296.97)" d="M80,0h430" style="stroke: rgb(255, 255, 255); stroke-opacity: 1; stroke-width: 1px;"/><path class="ygrid crisp" transform="translate(0,261.24)" d="M80,0h430" style="stroke: rgb(255, 255, 255); stroke-opacity: 1; stroke-width: 1px;"/><path class="ygrid crisp" transform="translate(0,225.51)" d="M80,0h430" style="stroke: rgb(255, 255, 255); stroke-opacity: 1; stroke-width: 1px;"/><path class="ygrid crisp" transform="translate(0,189.78)" d="M80,0h430" style="stroke: rgb(255, 255, 255); stroke-opacity: 1; stroke-width: 1px;"/><path class="ygrid crisp" transform="translate(0,154.06)" d="M80,0h430" style="stroke: rgb(255, 255, 255); stroke-opacity: 1; stroke-width: 1px;"/><path class="ygrid crisp" transform="translate(0,118.33)" d="M80,0h430" style="stroke: rgb(255, 255, 255); stroke-opacity: 1; stroke-width: 1px;"/></g></g><g class="zerolinelayer"><path class="yzl zl crisp" transform="translate(0,404.15)" d="M80,0h430" style="stroke: rgb(255, 255, 255); stroke-opacity: 1; stroke-width: 1px;"/></g><path class="xlines-below"/><path class="ylines-below"/><g class="overlines-below"/><g class="xaxislayer-below"/><g class="yaxislayer-below"/><g class="overaxes-below"/><g class="plot" transform="translate(80,100)" clip-path="url(#clip222626xyplot)"><g class="scatterlayer mlayer"><g class="trace scatter traceb077f9" style="stroke-miterlimit: 2; opacity: 1;"><g class="fills"/><g class="errorbars"/><g class="lines"><path class="js-line" d="M0,280.24L6.28,278.38L8.19,276.29L10.3,274.82L12.35,274.79L14.47,273.57L16.51,274.51L18.63,277.07L20.75,278.23L24.91,278.27L26.96,277.35L29.07,277.04L31.19,275.85L33.1,273.11L35.21,273.45L37.26,271.22L39.38,271.59L41.42,272.58L43.54,274.5L45.65,275.46L47.7,278.58L56.1,278.11L58.01,275.33L62.17,275.2L64.29,274.22L70.56,277.08L72.61,279.25L78.89,285.89L81,286.06L82.98,285.94L85.1,286.61L87.15,286.09L89.26,286.44L97.59,288.83L99.7,289.55L103.87,289.63L105.98,289.49L107.89,289.42L110.01,288.06L114.17,288.89L116.22,288.84L122.5,290.67L124.61,291.04L132.8,291.2L134.92,290.27L143.24,290.94L145.36,291.59L151.57,292.12L153.68,292.11L157.71,292.25L159.83,291.84L163.99,293.01L166.04,292.85L170.27,293.6L172.31,293.67L180.71,293.82L182.69,292.55L188.97,292.02L191.01,292.36L199.41,294.09L201.45,293.5L211.76,293.84L213.87,294.76L222.2,295.27L224.32,295.4L226.36,295.47L228.48,294.69L236.67,293.62L238.78,294.34L242.95,294.26L245.06,294.3L253.39,293.72L255.5,293.33L257.41,293.4L259.53,292.62L269.97,294.64L272.02,294.99L280.41,295.19L282.39,293.84L286.55,293.56L288.67,293.65L303.27,294.87L305.39,294.67L307.3,293.72L309.41,294.05L311.46,293.42L313.58,293.64L321.9,294.65L324.02,294.16L330.3,293.74L332.21,292.83L334.32,293.25L336.37,292.54L342.65,293.97L344.76,294.22L346.81,294.96L348.93,294.67L355.21,294.27L357.12,293.7L359.23,293.95L361.28,293.35L365.44,293.97L367.56,292.72L375.88,293.26L378,294.04L386.26,294.54L388.37,295.6L392.53,294.75L394.65,294.35L398.81,293.87L400.86,294.56L402.98,293.67L405.09,293.81L407,292.57L409.12,292.21L413.28,292.14L415.33,292.39L417.44,293.31L419.56,292.94L423.72,293.82L425.77,292.8L427.88,292.64L430,293.48" style="vector-effect: non-scaling-stroke; fill: none; stroke: rgb(248, 118, 109); stroke-opacity: 1; stroke-width: 2px; opacity: 1;"/></g><g class="points"/><g class="text"/></g><g class="trace scatter trace944062" style="stroke-miterlimit: 2; opacity: 1;"><g class="fills"/><g class="errorbars"/><g class="lines"><path class="js-line" d="M0,189.56L4.16,184.86L6.28,178.53L8.19,169.2L10.3,164.59L12.35,164.24L14.47,157.92L16.51,163.96L18.63,176.18L20.75,179.06L22.79,178.72L29.07,174.51L31.19,166.18L33.1,151.67L35.21,152.76L37.26,140.4L39.38,141.38L45.65,165.25L47.7,178.16L49.82,177.73L51.86,178.64L53.98,184.15L56.1,177.26L58.01,163.84L60.12,162.43L64.29,153.88L66.33,162.2L68.45,168.86L70.56,171.55L74.73,176.6L76.77,176L78.89,181.18L81,170.65L82.98,165.9L85.1,165.86L87.15,157.66L89.26,158.86L93.42,171.29L95.54,175.82L97.59,180.5L99.7,183.2L101.75,187.56L103.87,187.11L105.98,185.33L107.89,184.73L110.01,174.11L112.06,174.14L114.17,176L116.22,174.32L120.45,184.03L122.5,185.53L124.61,185.44L126.66,188.39L130.89,185.65L132.8,179.5L134.92,169.29L136.96,167.36L141.13,168.98L143.24,174.22L147.41,181.28L149.52,180.35L151.57,182.81L153.68,178.57L155.8,179.05L157.71,173.58L159.83,164.18L161.87,166.92L163.99,169.82L166.04,168.96L170.27,179.75L172.31,179.96L174.43,180.6L176.48,182.23L178.59,182.45L180.71,180.81L182.69,165.78L184.8,161.45L186.85,162.72L188.97,156.17L195.24,175.42L197.29,178.71L199.41,182.42L201.45,178.97L207.6,161.63L209.71,161.98L211.76,158.87L213.87,170.54L215.92,169.34L218.04,173.67L220.15,177.03L222.2,177.79L224.32,179.45L226.36,188.39L230.59,174.86L232.5,173.91L234.62,168.76L236.67,158.88L238.78,166.83L240.83,167.88L245.06,176.72L247.11,178.15L249.22,179.72L251.27,184.49L255.5,168.5L257.41,167.31L259.53,154.29L261.58,151.2L263.69,159.37L265.74,158.87L269.97,167.12L272.02,168.16L274.13,170.4L276.18,175.1L278.3,166.87L280.41,164.35L282.39,149.06L284.51,140.29L286.55,136.69L288.67,139.19L290.72,145.59L292.83,149.24L296.99,158.36L299.11,158.16L301.16,161.6L303.27,163.02L305.39,154.82L307.3,135.07L309.41,134.21L311.46,120.65L313.58,126.26L315.62,134.13L317.74,141.83L319.86,145.23L321.9,153.11L324.02,147.16L326.07,150.97L328.18,148.4L330.3,140L332.21,120.82L334.32,121.03L336.37,104.94L340.53,119.05L342.65,127.25L344.76,131.89L346.81,142.18L348.93,142.65L350.97,145.38L353.09,141.52L355.21,132.44L357.12,123.42L359.23,120.64L361.28,107.18L363.39,119.98L365.44,129.16L367.56,123.29L375.88,142.37L378,142.2L380.11,135.2L382.09,139.13L386.26,116.13L388.37,123.39L390.42,96.26L392.53,78.73L394.65,65.27L396.7,63.2L398.81,65.71L400.86,93.95L402.98,85.48L405.09,88.27L409.12,32.87L411.16,16L413.28,18.34L415.33,25.4L417.44,52.47L419.56,60.59L421.61,73.37L423.72,92.29L425.77,88.68L427.88,75.16L430,77.8L430,68.61" style="vector-effect: non-scaling-stroke; fill: none; stroke: rgb(163, 165, 0); stroke-opacity: 1; stroke-width: 2px; opacity: 1;"/></g><g class="points"/><g class="text"/></g><g class="trace scatter trace2f5676" style="stroke-miterlimit: 2; opacity: 1;"><g class="fills"/><g class="errorbars"/><g class="lines"><path class="js-line" d="M324.02,303.81L407,303.49L409.12,303.45L427.88,303.9L427.88,303.87" style="vector-effect: non-scaling-stroke; fill: none; stroke: rgb(0, 191, 125); stroke-opacity: 1; stroke-width: 2px; opacity: 1;"/></g><g class="points"/><g class="text"/></g></g></g><g class="overplot"/><path class="xlines-above crisp" d="" style="fill: none; stroke-width: 1px; stroke: rgb(0, 0, 0); stroke-opacity: 0;"/><path class="ylines-above crisp" d="" style="fill: none; stroke-width: 1px; stroke: rgb(0, 0, 0); stroke-opacity: 0;"/><g class="overlines-above"/><g class="xaxislayer-above"><path class="xtick ticks crisp" d="M0,421v5" transform="translate(84.16,0)" style="stroke: rgb(51, 51, 51); stroke-opacity: 1; stroke-width: 1px;"/><path class="xtick ticks crisp" d="M0,421v5" transform="translate(208.77,0)" style="stroke: rgb(51, 51, 51); stroke-opacity: 1; stroke-width: 1px;"/><path class="xtick ticks crisp" d="M0,421v5" transform="translate(333.39,0)" style="stroke: rgb(51, 51, 51); stroke-opacity: 1; stroke-width: 1px;"/><path class="xtick ticks crisp" d="M0,421v5" transform="translate(458,0)" style="stroke: rgb(51, 51, 51); stroke-opacity: 1; stroke-width: 1px;"/><g class="xtick"><text text-anchor="middle" x="0" y="440.4" transform="translate(84.16,0)" style="font-family: 'Open Sans', verdana, arial, sans-serif; font-size: 12px; fill: rgb(51, 51, 51); fill-opacity: 1; white-space: pre; opacity: 1;">2005</text></g><g class="xtick"><text text-anchor="middle" x="0" y="440.4" style="font-family: 'Open Sans', verdana, arial, sans-serif; font-size: 12px; fill: rgb(51, 51, 51); fill-opacity: 1; white-space: pre; opacity: 1;" transform="translate(208.77,0)">2010</text></g><g class="xtick"><text text-anchor="middle" x="0" y="440.4" style="font-family: 'Open Sans', verdana, arial, sans-serif; font-size: 12px; fill: rgb(51, 51, 51); fill-opacity: 1; white-space: pre; opacity: 1;" transform="translate(333.39,0)">2015</text></g><g class="xtick"><text text-anchor="middle" x="0" y="440.4" style="font-family: 'Open Sans', verdana, arial, sans-serif; font-size: 12px; fill: rgb(51, 51, 51); fill-opacity: 1; white-space: pre; opacity: 1;" transform="translate(458,0)">2020</text></g></g><g class="yaxislayer-above"><path class="ytick ticks crisp" d="M79,0h-5" transform="translate(0,404.15)" style="stroke: rgb(51, 51, 51); stroke-opacity: 1; stroke-width: 1px;"/><path class="ytick ticks crisp" d="M79,0h-5" transform="translate(0,368.42)" style="stroke: rgb(51, 51, 51); stroke-opacity: 1; stroke-width: 1px;"/><path class="ytick ticks crisp" d="M79,0h-5" transform="translate(0,332.69)" style="stroke: rgb(51, 51, 51); stroke-opacity: 1; stroke-width: 1px;"/><path class="ytick ticks crisp" d="M79,0h-5" transform="translate(0,296.97)" style="stroke: rgb(51, 51, 51); stroke-opacity: 1; stroke-width: 1px;"/><path class="ytick ticks crisp" d="M79,0h-5" transform="translate(0,261.24)" style="stroke: rgb(51, 51, 51); stroke-opacity: 1; stroke-width: 1px;"/><path class="ytick ticks crisp" d="M79,0h-5" transform="translate(0,225.51)" style="stroke: rgb(51, 51, 51); stroke-opacity: 1; stroke-width: 1px;"/><path class="ytick ticks crisp" d="M79,0h-5" transform="translate(0,189.78)" style="stroke: rgb(51, 51, 51); stroke-opacity: 1; stroke-width: 1px;"/><path class="ytick ticks crisp" d="M79,0h-5" transform="translate(0,154.06)" style="stroke: rgb(51, 51, 51); stroke-opacity: 1; stroke-width: 1px;"/><path class="ytick ticks crisp" d="M79,0h-5" transform="translate(0,118.33)" style="stroke: rgb(51, 51, 51); stroke-opacity: 1; stroke-width: 1px;"/><g class="ytick"><text text-anchor="end" x="71.6" y="4.199999999999999" transform="translate(0,404.15)" style="font-family: 'Open Sans', verdana, arial, sans-serif; font-size: 12px; fill: rgb(51, 51, 51); fill-opacity: 1; white-space: pre; opacity: 1;">0</text></g><g class="ytick"><text text-anchor="end" x="71.6" y="4.199999999999999" style="font-family: 'Open Sans', verdana, arial, sans-serif; font-size: 12px; fill: rgb(51, 51, 51); fill-opacity: 1; white-space: pre; opacity: 1;" transform="translate(0,368.42)">1000</text></g><g class="ytick"><text text-anchor="end" x="71.6" y="4.199999999999999" style="font-family: 'Open Sans', verdana, arial, sans-serif; font-size: 12px; fill: rgb(51, 51, 51); fill-opacity: 1; white-space: pre; opacity: 1;" transform="translate(0,332.69)">2000</text></g><g class="ytick"><text text-anchor="end" x="71.6" y="4.199999999999999" style="font-family: 'Open Sans', verdana, arial, sans-serif; font-size: 12px; fill: rgb(51, 51, 51); fill-opacity: 1; white-space: pre; opacity: 1;" transform="translate(0,296.97)">3000</text></g><g class="ytick"><text text-anchor="end" x="71.6" y="4.199999999999999" style="font-family: 'Open Sans', verdana, arial, sans-serif; font-size: 12px; fill: rgb(51, 51, 51); fill-opacity: 1; white-space: pre; opacity: 1;" transform="translate(0,261.24)">4000</text></g><g class="ytick"><text text-anchor="end" x="71.6" y="4.199999999999999" style="font-family: 'Open Sans', verdana, arial, sans-serif; font-size: 12px; fill: rgb(51, 51, 51); fill-opacity: 1; white-space: pre; opacity: 1;" transform="translate(0,225.51)">5000</text></g><g class="ytick"><text text-anchor="end" x="71.6" y="4.199999999999999" style="font-family: 'Open Sans', verdana, arial, sans-serif; font-size: 12px; fill: rgb(51, 51, 51); fill-opacity: 1; white-space: pre; opacity: 1;" transform="translate(0,189.78)">6000</text></g><g class="ytick"><text text-anchor="end" x="71.6" y="4.199999999999999" style="font-family: 'Open Sans', verdana, arial, sans-serif; font-size: 12px; fill: rgb(51, 51, 51); fill-opacity: 1; white-space: pre; opacity: 1;" transform="translate(0,154.06)">7000</text></g><g class="ytick"><text text-anchor="end" x="71.6" y="4.199999999999999" style="font-family: 'Open Sans', verdana, arial, sans-serif; font-size: 12px; fill: rgb(51, 51, 51); fill-opacity: 1; white-space: pre; opacity: 1;" transform="translate(0,118.33)">8000</text></g></g><g class="overaxes-above"/></g></g><g class="polarlayer"/><g class="smithlayer"/><g class="ternarylayer"/><g class="geolayer"/><g class="funnelarealayer"/><g class="pielayer"/><g class="iciclelayer"/><g class="treemaplayer"/><g class="sunburstlayer"/><g class="glimages"/><defs id="topdefs-222626"><g class="clips"/><clipPath id="legend222626"><rect width="169" height="67" x="0" y="0"/></clipPath></defs><g class="layer-above"><g class="imagelayer"/><g class="shapelayer"/></g><g class="infolayer"><g class="legend" pointer-events="all" transform="translate(518.6,100)"><rect class="bg" shape-rendering="crispEdges" width="169" height="67" x="0" y="0" style="stroke: rgb(68, 68, 68); stroke-opacity: 1; fill: rgb(255, 255, 255); fill-opacity: 1; stroke-width: 0px;"/><g class="scrollbox" transform="" clip-path="url(#legend222626)"><g class="groups"><g class="traces" transform="translate(0,14.5)" style="opacity: 1;"><text class="legendtext" text-anchor="start" x="40" y="4.680000000000001" style="font-family: 'Open Sans', verdana, arial, sans-serif; font-size: 12px; fill: rgb(51, 51, 51); fill-opacity: 1; white-space: pre;">BACBATOTALNSAMO</text><g class="layers" style="opacity: 1;"><g class="legendfill"/><g class="legendlines"><path class="js-line" d="M5,0h30" style="fill: none; stroke: rgb(248, 118, 109); stroke-opacity: 1; stroke-width: 2px;"/></g><g class="legendsymbols"><g class="legendpoints"/></g></g><rect class="legendtoggle" x="0" y="-9.5" width="163.1875" height="19" style="fill: rgb(0, 0, 0); fill-opacity: 0;"/></g><g class="traces" transform="translate(0,33.5)" style="opacity: 1;"><text class="legendtext" text-anchor="start" x="40" y="4.680000000000001" style="font-family: 'Open Sans', verdana, arial, sans-serif; font-size: 12px; fill: rgb(51, 51, 51); fill-opacity: 1; white-space: pre;">BABATOTALNSAMO</text><g class="layers" style="opacity: 1;"><g class="legendfill"/><g class="legendlines"><path class="js-line" d="M5,0h30" style="fill: none; stroke: rgb(163, 165, 0); stroke-opacity: 1; stroke-width: 2px;"/></g><g class="legendsymbols"><g class="legendpoints"/></g></g><rect class="legendtoggle" x="0" y="-9.5" width="163.1875" height="19" style="fill: rgb(0, 0, 0); fill-opacity: 0;"/></g><g class="traces" transform="translate(0,52.5)" style="opacity: 1;"><text class="legendtext" text-anchor="start" x="40" y="4.680000000000001" style="font-family: 'Open Sans', verdana, arial, sans-serif; font-size: 12px; fill: rgb(51, 51, 51); fill-opacity: 1; white-space: pre;">AVELISPRIYYMO</text><g class="layers" style="opacity: 1;"><g class="legendfill"/><g class="legendlines"><path class="js-line" d="M5,0h30" style="fill: none; stroke: rgb(0, 191, 125); stroke-opacity: 1; stroke-width: 2px;"/></g><g class="legendsymbols"><g class="legendpoints"/></g></g><rect class="legendtoggle" x="0" y="-9.5" width="163.1875" height="19" style="fill: rgb(0, 0, 0); fill-opacity: 0;"/></g></g></g><rect class="scrollbar" rx="20" ry="3" width="0" height="0" x="0" y="0" style="fill: rgb(128, 139, 164); fill-opacity: 1;"/></g><g class="g-gtitle"><text class="gtitle" x="350" y="50" text-anchor="middle" dy="0em" style="font-family: 'Open Sans', verdana, arial, sans-serif; font-size: 17px; fill: rgb(51, 51, 51); opacity: 1; font-weight: normal; white-space: pre;">Series Moving Average</text></g><g class="g-xtitle"><text class="xtitle" x="295" y="468.20625" text-anchor="middle" style="font-family: 'Open Sans', verdana, arial, sans-serif; font-size: 14px; fill: rgb(51, 51, 51); opacity: 1; font-weight: normal; white-space: pre;">Date</text></g><g class="g-ytitle"><text class="ytitle" transform="rotate(-90,16.278125000000003,260)" x="16.278125000000003" y="260" text-anchor="middle" style="font-family: 'Open Sans', verdana, arial, sans-serif; font-size: 14px; fill: rgb(51, 51, 51); opacity: 1; font-weight: normal; white-space: pre;">Value</text></g></g></svg>