<svg class="main-svg" xmlns="http://www.w3.org/2000/svg" xmlns:xlink="http://www.w3.org/1999/xlink" width="700" height="500" style="" viewBox="0 0 700 500"><rect x="0" y="0" width="700" height="500" style="fill: rgb(255, 255, 255); fill-opacity: 1;"/><defs id="defs-da3be9"><g class="clips"><clipPath id="clipda3be9xyplot" class="plotclip"><rect width="430" height="320"/></clipPath><clipPath class="axesclip" id="clipda3be9x"><rect x="80" y="0" width="430" height="500"/></clipPath><clipPath class="axesclip" id="clipda3be9y"><rect x="0" y="100" width="700" height="320"/></clipPath><clipPath class="axesclip" id="clipda3be9xy"><rect x="80" y="100" width="430" height="320"/></clipPath></g><g class="gradients"/><g class="patterns"/></defs><g class="bglayer"><rect class="bg" x="80" y="100" width="430" height="320" style="fill: rgb(237, 237, 237); fill-opacity: 1; stroke-width: 0;"/></g><g class="layer-below"><g class="imagelayer"/><g class="shapelayer"/></g><g class="cartesianlayer"><g class="subplot xy"><g class="layer-subplot"><g class="shapelayer"/><g class="imagelayer"/></g><g class="gridlayer"><g class="x"><path class="xgrid crisp" transform="translate(83.97,0)" d="M0,100v320" style="stroke: rgb(255, 255, 255); stroke-opacity: 1; stroke-width: 1px;"/><path class="xgrid crisp" transform="translate(202.87,0)" d="M0,100v320" style="stroke: rgb(255, 255, 255); stroke-opacity: 1; stroke-width: 1px;"/><path class="xgrid crisp" transform="translate(321.76,0)" d="M0,100v320" style="stroke: rgb(255, 255, 255); stroke-opacity: 1; stroke-width: 1px;"/><path class="xgrid crisp" transform="translate(440.66,0)" d="M0,100v320" style="stroke: rgb(255, 255, 255); stroke-opacity: 1; stroke-width: 1px;"/></g><g class="y"><path class="ygrid crisp" transform="translate(0,368.39)" d="M80,0h430" style="stroke: rgb(255, 255, 255); stroke-opacity: 1; stroke-width: 1px;"/><path class="ygrid crisp" transform="translate(0,332.75)" d="M80,0h430" style="stroke: rgb(255, 255, 255); stroke-opacity: 1; stroke-width: 1px;"/><path class="ygrid crisp" transform="translate(0,297.12)" d="M80,0h430" style="stroke: rgb(255, 255, 255); stroke-opacity: 1; stroke-width: 1px;"/><path class="ygrid crisp" transform="translate(0,261.49)" d="M80,0h430" style="stroke: rgb(255, 255, 255); stroke-opacity: 1; stroke-width: 1px;"/><path class="ygrid crisp" transform="translate(0,225.86)" d="M80,0h430" style="stroke: rgb(255, 255, 255); stroke-opacity: 1; stroke-width: 1px;"/><path class="ygrid crisp" transform="translate(0,190.22)" d="M80,0h430" style="stroke: rgb(255, 255, 255); stroke-opacity: 1; stroke-width: 1px;"/><path class="ygrid crisp" transform="translate(0,154.59)" d="M80,0h430" style="stroke: rgb(255, 255, 255); stroke-opacity: 1; stroke-width: 1px;"/><path class="ygrid crisp" transform="translate(0,118.96000000000001)" d="M80,0h430" style="stroke: rgb(255, 255, 255); stroke-opacity: 1; stroke-width: 1px;"/></g></g><g class="zerolinelayer"><path class="yzl zl crisp" transform="translate(0,404.02)" d="M80,0h430" style="stroke: rgb(255, 255, 255); stroke-opacity: 1; stroke-width: 1px;"/></g><path class="xlines-below"/><path class="ylines-below"/><g class="overlines-below"/><g class="xaxislayer-below"/><g class="yaxislayer-below"/><g class="overaxes-below"/><g class="plot" transform="translate(80,100)" clip-path="url(#clipda3be9xyplot)"><g class="scatterlayer mlayer"><g class="trace scatter trace093df2" style="stroke-miterlimit: 2; opacity: 1;"><g class="fills"/><g class="errorbars"/><g class="lines"><path class="js-line" d="M0,280.17L5.99,278.31L7.81,276.23L9.83,274.77L11.79,274.74L13.8,273.52L15.76,274.46L17.78,277.01L19.79,278.17L23.77,278.21L25.72,277.29L27.74,276.98L29.76,275.79L31.58,273.06L33.6,273.4L35.55,271.18L37.57,271.55L39.52,272.53L41.54,274.44L43.56,275.41L45.51,278.52L53.52,278.05L55.35,275.28L59.32,275.15L61.34,274.17L67.33,277.02L69.28,279.18L75.27,285.8L77.29,285.98L79.18,285.86L81.19,286.53L83.15,286.01L85.17,286.35L93.11,288.74L95.13,289.46L99.1,289.54L101.12,289.4L102.94,289.33L104.96,287.97L108.93,288.8L110.89,288.75L116.88,290.58L118.89,290.95L126.71,291.11L128.73,290.17L136.67,290.84L138.69,291.49L144.61,292.02L146.63,292.01L150.47,292.15L152.49,291.75L156.46,292.91L158.42,292.74L162.45,293.49L164.41,293.56L172.42,293.71L174.3,292.44L180.3,291.92L182.25,292.26L190.26,293.98L192.21,293.39L202.04,293.73L204.06,294.65L212,295.16L214.02,295.3L215.98,295.36L218,294.58L225.81,293.51L227.83,294.23L231.8,294.16L233.82,294.19L241.76,293.62L243.78,293.23L245.6,293.3L247.62,292.52L257.58,294.53L259.54,294.88L267.55,295.08L269.43,293.73L273.41,293.46L275.42,293.55L289.36,294.77L291.38,294.56L293.2,293.62L295.22,293.94L297.17,293.32L299.19,293.54L307.13,294.55L309.15,294.06L315.14,293.65L316.97,292.75L318.98,293.19L320.94,292.49L326.93,293.9L328.95,294.12L330.9,294.85L332.92,294.57L338.91,294.18L340.73,293.61L342.75,293.87L344.7,293.26L348.68,293.87L350.69,292.61L358.64,293.15L360.66,293.91L368.53,294.43L370.55,295.5L374.52,294.62L376.54,294.23L380.51,293.76L382.47,294.45L384.49,293.54L386.51,293.69L388.33,292.45L390.35,292.11L394.32,292.08L396.27,292.29L398.29,293.19L400.31,292.8L404.28,293.64L406.23,292.58L408.25,292.41L410.27,293.26L412.09,292.62L414.11,292.76L416.07,293.67L418.08,293.62L430,294.79L430,295.72" style="vector-effect: non-scaling-stroke; fill: none; stroke: rgb(248, 118, 109); stroke-opacity: 1; stroke-width: 2px; opacity: 1;"/></g><g class="points"/><g class="text"/></g><g class="trace scatter traceb0d136" style="stroke-miterlimit: 2; opacity: 1;"><g class="fills"/><g class="errorbars"/><g class="lines"><path class="js-line" d="M0,189.74L3.97,185.05L5.99,178.73L7.81,169.43L9.83,164.83L11.79,164.48L13.8,158.17L15.76,164.2L17.78,176.39L19.79,179.26L21.75,178.93L27.74,174.72L29.76,166.42L31.58,151.95L33.6,153.04L35.55,140.7L37.57,141.68L43.56,165.49L45.51,178.36L47.53,177.94L49.49,178.84L51.5,184.34L53.52,177.47L55.35,164.08L57.36,162.68L61.34,154.15L63.29,162.45L65.31,169.09L67.33,171.77L71.3,176.8L73.25,176.21L75.27,181.37L77.29,170.87L79.18,166.13L81.19,166.09L83.15,157.92L85.17,159.11L89.14,171.51L91.16,176.03L93.11,180.7L95.13,183.39L97.08,187.73L99.1,187.29L101.12,185.51L102.94,184.91L104.96,174.32L106.91,174.36L108.93,176.21L110.89,174.54L114.92,184.21L116.88,185.71L118.89,185.63L120.85,188.57L124.88,185.83L126.71,179.7L128.73,169.52L130.68,167.6L134.65,169.21L136.67,174.44L140.64,181.47L142.66,180.54L144.61,183L146.63,178.77L148.65,179.25L150.47,173.8L152.49,164.42L154.45,167.15L156.46,170.05L158.42,169.19L162.45,179.95L164.41,180.16L166.43,180.8L168.38,182.43L170.4,182.64L172.42,181.01L174.3,166.02L176.32,161.69L178.28,162.96L180.3,156.43L186.29,175.63L188.24,178.91L190.26,182.61L192.21,179.17L198.07,161.87L200.09,162.23L202.04,159.13L204.06,170.76L206.01,169.56L208.03,173.89L210.05,177.24L212,177.99L214.02,179.65L215.98,188.56L220.01,175.07L221.84,174.12L223.86,168.99L225.81,159.14L227.83,167.06L229.78,168.12L233.82,176.92L235.77,178.35L237.79,179.92L239.74,184.68L243.78,168.73L245.6,167.55L247.62,154.55L249.57,151.48L251.59,159.62L253.55,159.13L257.58,167.35L259.54,168.39L261.56,170.62L263.51,175.31L265.53,167.1L267.55,164.6L269.43,149.34L271.45,140.59L273.41,137.01L275.42,139.5L277.38,145.88L279.4,149.52L283.37,158.62L285.39,158.42L287.34,161.84L289.36,163.26L291.38,155.09L293.2,135.38L295.22,134.53L297.17,121L299.19,126.6L301.14,134.45L303.16,142.13L305.18,145.52L307.13,153.38L309.15,147.44L311.11,151.25L313.12,148.71L315.14,140.34L316.97,121.27L318.98,121.52L320.94,105.44L324.91,119.51L326.93,127.56L328.95,132.13L330.9,142.44L332.92,142.9L334.87,145.67L336.89,141.9L338.91,132.84L340.73,123.82L342.75,121L344.7,107.59L346.72,120.37L348.68,129.55L350.69,123.7L358.64,142.53L360.66,142.21L362.67,135.17L364.56,139.11L368.53,116.18L370.55,123.47L374.52,78.89L376.54,65.52L378.5,63.43L380.51,66.03L382.47,94.21L384.49,85.62L386.51,88.39L388.33,58.68L392.3,16L394.32,18.31L396.27,25.19L398.29,52.12L400.31,60.08L402.26,72.72L404.28,91.52L406.23,87.77L408.25,74.14L410.27,76.9L412.09,50.61L414.11,37.46L416.07,37.82L418.08,40.86L420.04,48.46L422.06,61.63L424.07,70.72L426.03,73.92L430,88.7L430,107.73" style="vector-effect: non-scaling-stroke; fill: none; stroke: rgb(163, 165, 0); stroke-opacity: 1; stroke-width: 2px; opacity: 1;"/></g><g class="points"/><g class="text"/></g><g class="trace scatter tracef82785" style="stroke-miterlimit: 2; opacity: 1;"><g class="fills"/><g class="errorbars"/><g class="lines"><path class="js-line" d="M309.15,303.7L380.51,303.14L382.47,303.11L398.29,303.57L400.31,303.9L416.07,303.83L418.08,303.82L430,303.76L430,303.73" style="vector-effect: non-scaling-stroke; fill: none; stroke: rgb(0, 191, 125); stroke-opacity: 1; stroke-width: 2px; opacity: 1;"/></g><g class="points"/><g class="text"/></g></g></g><g class="overplot"/><path class="xlines-above crisp" d="" style="fill: none; stroke-width: 1px; stroke: rgb(0, 0, 0); stroke-opacity: 0;"/><path class="ylines-above crisp" d="" style="fill: none; stroke-width: 1px; stroke: rgb(0, 0, 0); stroke-opacity: 0;"/><g class="overlines-above"/><g class="xaxislayer-above"><path class="xtick ticks crisp" d="M0,421v5" transform="translate(83.97,0)" style="stroke: rgb(51, 51, 51); stroke-opacity: 1; stroke-width: 1px;"/><path class="xtick ticks crisp" d="M0,421v5" transform="translate(202.87,0)" style="stroke: rgb(51, 51, 51); stroke-opacity: 1; stroke-width: 1px;"/><path class="xtick ticks crisp" d="M0,421v5" transform="translate(321.76,0)" style="stroke: rgb(51, 51, 51); stroke-opacity: 1; stroke-width: 1px;"/><path class="xtick ticks crisp" d="M0,421v5" transform="translate(440.66,0)" style="stroke: rgb(51, 51, 51); stroke-opacity: 1; stroke-width: 1px;"/><g class="xtick"><text text-anchor="middle" x="0" y="440.4" transform="translate(83.97,0)" style="font-family: 'Open Sans', verdana, arial, sans-serif; font-size: 12px; fill: rgb(51, 51, 51); fill-opacity: 1; white-space: pre; opacity: 1;">2005</text></g><g class="xtick"><text text-anchor="middle" x="0" y="440.4" style="font-family: 'Open Sans', verdana, arial, sans-serif; font-size: 12px; fill: rgb(51, 51, 51); fill-opacity: 1; white-space: pre; opacity: 1;" transform="translate(202.87,0)">2010</text></g><g class="xtick"><text text-anchor="middle" x="0" y="440.4" style="font-family: 'Open Sans', verdana, arial, sans-serif; font-size: 12px; fill: rgb(51, 51, 51); fill-opacity: 1; white-space: pre; opacity: 1;" transform="translate(321.76,0)">2015</text></g><g class="xtick"><text text-anchor="middle" x="0" y="440.4" style="font-family: 'Open Sans', verdana, arial, sans-serif; font-size: 12px; fill: rgb(51, 51, 51); fill-opacity: 1; white-space: pre; opacity: 1;" transform="translate(440.66,0)">2020</text></g></g><g class="yaxislayer-above"><path class="ytick ticks crisp" d="M79,0h-5" transform="translate(0,404.02)" style="stroke: rgb(51, 51, 51); stroke-opacity: 1; stroke-width: 1px;"/><path class="ytick ticks crisp" d="M79,0h-5" transform="translate(0,368.39)" style="stroke: rgb(51, 51, 51); stroke-opacity: 1; stroke-width: 1px;"/><path class="ytick ticks crisp" d="M79,0h-5" transform="translate(0,332.75)" style="stroke: rgb(51, 51, 51); stroke-opacity: 1; stroke-width: 1px;"/><path class="ytick ticks crisp" d="M79,0h-5" transform="translate(0,297.12)" style="stroke: rgb(51, 51, 51); stroke-opacity: 1; stroke-width: 1px;"/><path class="ytick ticks crisp" d="M79,0h-5" transform="translate(0,261.49)" style="stroke: rgb(51, 51, 51); stroke-opacity: 1; stroke-width: 1px;"/><path class="ytick ticks crisp" d="M79,0h-5" transform="translate(0,225.86)" style="stroke: rgb(51, 51, 51); stroke-opacity: 1; stroke-width: 1px;"/><path class="ytick ticks crisp" d="M79,0h-5" transform="translate(0,190.22)" style="stroke: rgb(51, 51, 51); stroke-opacity: 1; stroke-width: 1px;"/><path class="ytick ticks crisp" d="M79,0h-5" transform="translate(0,154.59)" style="stroke: rgb(51, 51, 51); stroke-opacity: 1; stroke-width: 1px;"/><path class="ytick ticks crisp" d="M79,0h-5" transform="translate(0,118.96000000000001)" style="stroke: rgb(51, 51, 51); stroke-opacity: 1; stroke-width: 1px;"/><g class="ytick"><text text-anchor="end" x="71.6" y="4.199999999999999" transform="translate(0,404.02)" style="font-family: 'Open Sans', verdana, arial, sans-serif; font-size: 12px; fill: rgb(51, 51, 51); fill-opacity: 1; white-space: pre; opacity: 1;">0</text></g><g class="ytick"><text text-anchor="end" x="71.6" y="4.199999999999999" style="font-family: 'Open Sans', verdana, arial, sans-serif; font-size: 12px; fill: rgb(51, 51, 51); fill-opacity: 1; white-space: pre; opacity: 1;" transform="translate(0,368.39)">1000</text></g><g class="ytick"><text text-anchor="end" x="71.6" y="4.199999999999999" style="font-family: 'Open Sans', verdana, arial, sans-serif; font-size: 12px; fill: rgb(51, 51, 51); fill-opacity: 1; white-space: pre; opacity: 1;" transform="translate(0,332.75)">2000</text></g><g class="ytick"><text text-anchor="end" x="71.6" y="4.199999999999999" style="font-family: 'Open Sans', verdana, arial, sans-serif; font-size: 12px; fill: rgb(51, 51, 51); fill-opacity: 1; white-space: pre; opacity: 1;" transform="translate(0,297.12)">3000</text></g><g class="ytick"><text text-anchor="end" x="71.6" y="4.199999999999999" style="font-family: 'Open Sans', verdana, arial, sans-serif; font-size: 12px; fill: rgb(51, 51, 51); fill-opacity: 1; white-space: pre; opacity: 1;" transform="translate(0,261.49)">4000</text></g><g class="ytick"><text text-anchor="end" x="71.6" y="4.199999999999999" style="font-family: 'Open Sans', verdana, arial, sans-serif; font-size: 12px; fill: rgb(51, 51, 51); fill-opacity: 1; white-space: pre; opacity: 1;" transform="translate(0,225.86)">5000</text></g><g class="ytick"><text text-anchor="end" x="71.6" y="4.199999999999999" style="font-family: 'Open Sans', verdana, arial, sans-serif; font-size: 12px; fill: rgb(51, 51, 51); fill-opacity: 1; white-space: pre; opacity: 1;" transform="translate(0,190.22)">6000</text></g><g class="ytick"><text text-anchor="end" x="71.6" y="4.199999999999999" style="font-family: 'Open Sans', verdana, arial, sans-serif; font-size: 12px; fill: rgb(51, 51, 51); fill-opacity: 1; white-space: pre; opacity: 1;" transform="translate(0,154.59)">7000</text></g><g class="ytick"><text text-anchor="end" x="71.6" y="4.199999999999999" style="font-family: 'Open Sans', verdana, arial, sans-serif; font-size: 12px; fill: rgb(51, 51, 51); fill-opacity: 1; white-space: pre; opacity: 1;" transform="translate(0,118.96000000000001)">8000</text></g></g><g class="overaxes-above"/></g></g><g class="polarlayer"/><g class="smithlayer"/><g class="ternarylayer"/><g class="geolayer"/><g class="funnelarealayer"/><g class="pielayer"/><g class="iciclelayer"/><g class="treemaplayer"/><g class="sunburstlayer"/><g class="glimages"/><defs id="topdefs-da3be9"><g class="clips"/><clipPath id="legendda3be9"><rect width="169" height="67" x="0" y="0"/></clipPath></defs><g class="layer-above"><g class="imagelayer"/><g class="shapelayer"/></g><g class="infolayer"><g class="legend" pointer-events="all" transform="translate(518.6,100)"><rect class="bg" shape-rendering="crispEdges" width="169" height="67" x="0" y="0" style="stroke: rgb(68, 68, 68); stroke-opacity: 1; fill: rgb(255, 255, 255); fill-opacity: 1; stroke-width: 0px;"/><g class="scrollbox" transform="" clip-path="url(#legendda3be9)"><g class="groups"><g class="traces" transform="translate(0,14.5)" style="opacity: 1;"><text class="legendtext" text-anchor="start" x="40" y="4.680000000000001" style="font-family: 'Open Sans', verdana, arial, sans-serif; font-size: 12px; fill: rgb(51, 51, 51); fill-opacity: 1; white-space: pre;">BACBATOTALNSAMO</text><g class="layers" style="opacity: 1;"><g class="legendfill"/><g class="legendlines"><path class="js-line" d="M5,0h30" style="fill: none; stroke: rgb(248, 118, 109); stroke-opacity: 1; stroke-width: 2px;"/></g><g class="legendsymbols"><g class="legendpoints"/></g></g><rect class="legendtoggle" x="0" y="-9.5" width="163.1875" height="19" style="fill: rgb(0, 0, 0); fill-opacity: 0;"/></g><g class="traces" transform="translate(0,33.5)" style="opacity: 1;"><text class="legendtext" text-anchor="start" x="40" y="4.680000000000001" style="font-family: 'Open Sans', verdana, arial, sans-serif; font-size: 12px; fill: rgb(51, 51, 51); fill-opacity: 1; white-space: pre;">BABATOTALNSAMO</text><g class="layers" style="opacity: 1;"><g class="legendfill"/><g class="legendlines"><path class="js-line" d="M5,0h30" style="fill: none; stroke: rgb(163, 165, 0); stroke-opacity: 1; stroke-width: 2px;"/></g><g class="legendsymbols"><g class="legendpoints"/></g></g><rect class="legendtoggle" x="0" y="-9.5" width="163.1875" height="19" style="fill: rgb(0, 0, 0); fill-opacity: 0;"/></g><g class="traces" transform="translate(0,52.5)" style="opacity: 1;"><text class="legendtext" text-anchor="start" x="40" y="4.680000000000001" style="font-family: 'Open Sans', verdana, arial, sans-serif; font-size: 12px; fill: rgb(51, 51, 51); fill-opacity: 1; white-space: pre;">AVELISPRIYYMO</text><g class="layers" style="opacity: 1;"><g class="legendfill"/><g class="legendlines"><path class="js-line" d="M5,0h30" style="fill: none; stroke: rgb(0, 191, 125); stroke-opacity: 1; stroke-width: 2px;"/></g><g class="legendsymbols"><g class="legendpoints"/></g></g><rect class="legendtoggle" x="0" y="-9.5" width="163.1875" height="19" style="fill: rgb(0, 0, 0); fill-opacity: 0;"/></g></g></g><rect class="scrollbar" rx="20" ry="3" width="0" height="0" x="0" y="0" style="fill: rgb(128, 139, 164); fill-opacity: 1;"/></g><g class="g-gtitle"><text class="gtitle" x="350" y="50" text-anchor="middle" dy="0em" style="font-family: 'Open Sans', verdana, arial, sans-serif; font-size: 17px; fill: rgb(51, 51, 51); opacity: 1; font-weight: normal; white-space: pre;">Series Moving Average</text></g><g class="g-xtitle"><text class="xtitle" x="295" y="468.20625" text-anchor="middle" style="font-family: 'Open Sans', verdana, arial, sans-serif; font-size: 14px; fill: rgb(51, 51, 51); opacity: 1; font-weight: normal; white-space: pre;">Date</text></g><g class="g-ytitle"><text class="ytitle" transform="rotate(-90,16.278125000000003,260)" x="16.278125000000003" y="260" text-anchor="middle" style="font-family: 'Open Sans', verdana, arial, sans-serif; font-size: 14px; fill: rgb(51, 51, 51); opacity: 1; font-weight: normal; white-space: pre;">Value</text></g></g></svg>