<svg class="main-svg" xmlns="http://www.w3.org/2000/svg" xmlns:xlink="http://www.w3.org/1999/xlink" width="700" height="500" style="" viewBox="0 0 700 500"><rect x="0" y="0" width="700" height="500" style="fill: rgb(255, 255, 255); fill-opacity: 1;"/><defs id="defs-95c3dd"><g class="clips"><clipPath id="clip95c3ddxyplot" class="plotclip"><rect width="411" height="320"/></clipPath><clipPath class="axesclip" id="clip95c3ddx"><rect x="80" y="0" width="411" height="500"/></clipPath><clipPath class="axesclip" id="clip95c3ddy"><rect x="0" y="100" width="700" height="320"/></clipPath><clipPath class="axesclip" id="clip95c3ddxy"><rect x="80" y="100" width="411" height="320"/></clipPath></g><g class="gradients"/><g class="patterns"/></defs><g class="bglayer"><rect class="bg" x="80" y="100" width="411" height="320" style="fill: rgb(237, 237, 237); fill-opacity: 1; stroke-width: 0;"/></g><g class="layer-below"><g class="imagelayer"/><g class="shapelayer"/></g><g class="cartesianlayer"><g class="subplot xy"><g class="layer-subplot"><g class="shapelayer"/><g class="imagelayer"/></g><g class="gridlayer"><g class="x"><path class="xgrid crisp" transform="translate(91.77,0)" d="M0,100v320" style="stroke: rgb(255, 255, 255); stroke-opacity: 1; stroke-width: 1px;"/><path class="xgrid crisp" transform="translate(208.6,0)" d="M0,100v320" style="stroke: rgb(255, 255, 255); stroke-opacity: 1; stroke-width: 1px;"/><path class="xgrid crisp" transform="translate(325.41999999999996,0)" d="M0,100v320" style="stroke: rgb(255, 255, 255); stroke-opacity: 1; stroke-width: 1px;"/><path class="xgrid crisp" transform="translate(442.25,0)" d="M0,100v320" style="stroke: rgb(255, 255, 255); stroke-opacity: 1; stroke-width: 1px;"/></g><g class="y"><path class="ygrid crisp" transform="translate(0,344.15)" d="M80,0h411" style="stroke: rgb(255, 255, 255); stroke-opacity: 1; stroke-width: 1px;"/><path class="ygrid crisp" transform="translate(0,284.19)" d="M80,0h411" style="stroke: rgb(255, 255, 255); stroke-opacity: 1; stroke-width: 1px;"/><path class="ygrid crisp" transform="translate(0,224.23000000000002)" d="M80,0h411" style="stroke: rgb(255, 255, 255); stroke-opacity: 1; stroke-width: 1px;"/><path class="ygrid crisp" transform="translate(0,164.26999999999998)" d="M80,0h411" style="stroke: rgb(255, 255, 255); stroke-opacity: 1; stroke-width: 1px;"/><path class="ygrid crisp" transform="translate(0,104.31)" d="M80,0h411" style="stroke: rgb(255, 255, 255); stroke-opacity: 1; stroke-width: 1px;"/></g></g><g class="zerolinelayer"><path class="yzl zl crisp" transform="translate(0,404.11)" d="M80,0h411" style="stroke: rgb(255, 255, 255); stroke-opacity: 1; stroke-width: 1px;"/></g><path class="xlines-below"/><path class="ylines-below"/><g class="overlines-below"/><g class="xaxislayer-below"/><g class="yaxislayer-below"/><g class="overaxes-below"/><g class="plot" transform="translate(80,100)" clip-path="url(#clip95c3ddxyplot)"><g class="scatterlayer mlayer"><g class="trace scatter trace64fb91" style="stroke-miterlimit: 2; opacity: 1;"><g class="fills"/><g class="errorbars"/><g class="lines"><path class="js-line" d="M0,284.67L411,299.57" style="vector-effect: non-scaling-stroke; fill: none; stroke: rgb(99, 110, 250); stroke-opacity: 1; stroke-width: 2px; opacity: 1;"/></g><g class="points"/><g class="text"/></g><g class="trace scatter trace82074f" style="stroke-miterlimit: 2; opacity: 0.3;"><g class="fills"/><g class="errorbars"/><g class="lines"><path class="js-line" d="M0,284.44L1.98,284.29L3.97,285.4L5.89,280.34L7.87,285.76L9.79,282.61L11.77,282.85L13.76,280.85L15.55,271.58L17.53,279.62L19.45,282.46L21.43,277.76L23.35,284.77L25.34,282.31L27.32,284.5L29.24,282.49L31.22,277.88L33.14,280.91L35.12,281.03L37.11,279.5L38.9,271.01L40.88,279.32L42.8,271.55L44.79,282.58L46.7,283.63L48.69,279.05L50.67,283.36L52.59,284.65L54.57,282.43L60.46,280.82L62.25,272.99L64.23,283.39L66.15,280.4L68.14,277.4L70.06,284.26L72.04,278.72L74.02,286.18L75.94,289.51L77.93,287.8L79.85,290.59L81.83,289.84L83.81,286.93L85.67,289L87.65,290.62L89.57,288.4L91.55,291.28L93.47,288.76L95.46,293.05L97.44,292.75L99.36,290.44L101.34,294.31L103.26,290.38L105.25,291.76L107.23,292.18L109.02,290.14L111,288.58L112.92,292.87L116.83,292L118.81,293.74L120.79,292.45L122.71,293.08L124.69,294.31L126.61,292.9L128.6,293.32L130.58,292.84L132.37,292.87L134.36,290.38L136.27,293.23L138.26,294.64L140.18,292.57L142.16,294.31L144.14,293.11L146.06,294.7L148.05,294.79L149.97,293.17L151.95,294.28L153.93,294.37L157.71,293.08L159.63,296.17L161.61,296.17L163.53,293.68L165.51,296.35L167.5,293.92L169.42,296.47L171.4,295.66L173.32,293.98L175.3,296.05L177.29,295.06L179.14,291.13L181.12,294.28L183.04,295.27L185.03,293.95L186.95,296.47L188.93,293.59L190.91,297.04L192.83,295.18L194.82,296.08L196.73,293.98L198.72,293.71L200.7,295.66L202.49,294.61L204.48,297.07L206.4,296.26L208.38,297.57L210.3,296.5L212.28,297.1L214.27,296.86L216.18,295.27L218.17,298.14L220.09,296.77L222.07,293.83L224.05,295.99L225.85,295.42L227.83,296.41L229.75,294.73L231.73,296.86L233.65,294.88L235.63,296.2L237.62,296.56L239.54,294.49L241.52,296.5L245.42,294.13L247.41,294.91L249.2,294.79L251.18,293.2L253.1,296.26L255.08,296.62L257,296.08L258.99,296.95L260.97,294.76L262.89,297.72L264.87,297.31L266.79,295.9L270.76,296.2L272.61,292.06L274.6,295.9L276.52,296.14L280.42,296.74L282.4,294.88L284.39,296.89L286.31,297.07L288.29,295.15L290.21,297.07L292.19,295.48L294.17,296.02L295.97,293.11L297.95,296.5L299.87,294.46L301.85,296.38L303.77,297.75L305.75,294.88L307.74,295.21L309.66,296.5L311.64,294.31L313.56,297.4L315.54,292.93L317.53,295.75L319.32,292.69L321.3,296.08L323.22,294.4L325.2,295.81L327.12,297.07L329.11,294.52L331.09,297.1L333.01,297.51L334.99,294.61L336.91,297.07L338.9,294.25L340.88,295.66L342.67,295.12L344.65,295.69L346.57,294.52L348.56,295.54L350.48,297.01L352.46,289.84L354.44,296.29L356.36,294.52L358.35,297.19L360.26,297.04L362.25,293.11L364.23,296.44L371.97,297.54L373.89,293.38L375.88,296.38L377.86,294.85L379.78,296.71L381.76,296.14L383.68,296.26L385.66,292.63L387.65,295.45L389.44,291.49L391.42,294.64L393.34,294.58L395.33,294.04L397.24,296.47L399.23,295.36L401.21,293.08L403.13,295.99L405.11,296.35L407.03,292.18L409.02,294.67L411,296.62L411,296.62" style="vector-effect: non-scaling-stroke; fill: none; stroke: rgb(99, 110, 250); stroke-opacity: 1; stroke-width: 2px; opacity: 1;"/></g><g class="points"/><g class="text"/></g><g class="trace scatter trace15450e" style="stroke-miterlimit: 2; opacity: 1;"><g class="fills"/><g class="errorbars"/><g class="lines"><path class="js-line" d="M0,215.23L401.21,139.51L403.13,139.14L411,137.31" style="vector-effect: non-scaling-stroke; fill: none; stroke: rgb(239, 85, 59); stroke-opacity: 1; stroke-width: 2px; opacity: 1;"/></g><g class="points"/><g class="text"/></g><g class="trace scatter trace433c18" style="stroke-miterlimit: 2; opacity: 0.3;"><g class="fills"/><g class="errorbars"/><g class="lines"><path class="js-line" d="M0,211.71L1.98,215.91L3.97,211.98L5.89,189.8L7.87,210.39L9.79,200.29L11.77,207.6L13.76,185.42L15.55,150.64L17.53,191.05L19.45,198.82L21.43,181.07L23.35,210.78L25.34,201.91L27.32,203.14L29.24,197.41L31.22,173.79L33.14,206.37L35.12,195.91L38.9,136.52L40.88,178.37L42.8,154.48L44.79,200.05L46.7,201.25L48.69,177.68L50.67,204.31L52.59,208.65L54.57,198.25L56.49,205.06L58.48,200.8L60.46,175.41L62.25,152.35L64.23,192.34L66.15,190.13L68.14,179.84L70.06,210.33L72.04,180.29L74.02,203.62L75.94,202.33L77.93,188.81L79.85,207.84L81.83,202L83.81,159.46L85.67,182.39L87.65,188.63L89.57,173.46L91.55,207.03L93.47,189.11L95.46,204.88L97.44,207.63L99.36,193.12L101.34,218.37L103.26,207.36L107.23,200.14L109.02,190.61L111,173.82L112.92,207.51L114.91,210.81L116.83,193.09L118.81,213.21L120.79,191.92L122.71,213.81L124.69,210.45L126.61,205.48L128.6,206.17L130.58,187.46L132.37,188.03L134.36,167.61L136.27,197.38L138.26,208.71L140.18,191.68L142.16,210.03L144.14,185.45L146.06,209.13L148.05,204.82L149.97,202.03L151.95,192.22L153.93,187.49L155.72,186.17L157.71,165.36L159.63,213.54L161.61,204.4L163.53,183.89L165.51,207.57L167.5,189.23L169.42,214.41L171.4,207.09L173.32,190.73L175.3,208.47L179.14,151.36L181.12,188.9L183.04,196.06L185.03,180.98L186.95,211.14L188.93,182.06L190.91,210.18L192.83,209.88L194.82,196.54L196.73,196.66L198.72,156.88L200.7,187.73L202.49,184.76L204.48,198.04L206.4,183.62L208.38,205.81L210.3,182.69L212.28,202.96L214.27,212.13L216.18,186.8L218.17,212.76L220.09,220.2L222.07,172.53L224.05,185.81L225.85,182.81L227.83,191.17L229.75,178.73L231.73,205.87L233.65,190.25L235.63,204.55L237.62,206.49L239.54,184.73L241.52,212.46L243.44,210.27L245.42,165.18L247.41,178.76L249.2,179.75L251.18,157.81L253.1,197.32L255.08,199.45L257,176.69L258.99,198.07L260.97,174.09L262.89,201.7L264.87,208.83L266.79,196.42L268.78,163.53L270.76,163.53L272.61,137.51L274.6,172.05L276.52,181.34L278.5,174L280.42,190.4L282.4,152.83L284.39,191.5L286.31,200.14L288.29,173.16L290.21,204.82L292.19,158.8L294.17,157.12L295.97,117.24L297.95,169.56L299.87,147.91L301.85,182.36L303.77,190.13L305.75,149.56L307.74,183.83L309.66,180.95L311.64,157.39L313.56,206.14L315.54,138.77L317.53,148.57L319.32,100.51L321.3,158.26L323.22,138.62L325.2,165.27L327.12,181.25L329.11,134.93L331.09,177.71L333.01,181.82L334.99,167.22L336.91,192.73L338.9,118.74L340.88,139.61L342.67,143.96L344.65,155.56L346.57,136.28L348.56,172.44L350.48,178.1L352.46,119.34L354.44,177.35L356.36,152.89L358.35,197.11L360.26,195.07L362.25,118.62L364.23,148L366.09,169.38L368.07,146.35L369.99,149.32L371.97,149.08L373.89,34.17L375.88,95.84L377.86,89.87L379.78,140.63L381.76,159.64L383.68,152.65L385.66,60.28L387.65,101.59L389.44,16L391.42,51.83L393.34,81.87L395.33,70.08L397.24,131.21L399.23,129.6L401.21,85.88L403.13,135.5L405.11,149.47L407.03,116.04L409.02,72.9L411,96.95" style="vector-effect: non-scaling-stroke; fill: none; stroke: rgb(239, 85, 59); stroke-opacity: 1; stroke-width: 2px; opacity: 1;"/></g><g class="points"/><g class="text"/></g><g class="trace scatter trace801aa8" style="stroke-miterlimit: 2; opacity: 1;"><g class="fills"/><g class="errorbars"/><g class="lines"><path class="js-line" d="M303.77,303.93L409.02,303.77L409.02,303.76" style="vector-effect: non-scaling-stroke; fill: none; stroke: rgb(0, 204, 150); stroke-opacity: 1; stroke-width: 2px; opacity: 1;"/></g><g class="points"/><g class="text"/></g><g class="trace scatter trace6e9d11" style="stroke-miterlimit: 2; opacity: 0.3;"><g class="fills"/><g class="errorbars"/><g class="lines"><path class="js-line" d="M303.77,303.8L385.66,303.51L387.65,303.49L409.02,303.87L409.02,303.87" style="vector-effect: non-scaling-stroke; fill: none; stroke: rgb(0, 204, 150); stroke-opacity: 1; stroke-width: 2px; opacity: 1;"/></g><g class="points"/><g class="text"/></g></g></g><g class="overplot"/><path class="xlines-above crisp" d="" style="fill: none; stroke-width: 1px; stroke: rgb(0, 0, 0); stroke-opacity: 0;"/><path class="ylines-above crisp" d="" style="fill: none; stroke-width: 1px; stroke: rgb(0, 0, 0); stroke-opacity: 0;"/><g class="overlines-above"/><g class="xaxislayer-above"><path class="xtick ticks crisp" d="M0,421v5" transform="translate(91.77,0)" style="stroke: rgb(51, 51, 51); stroke-opacity: 1; stroke-width: 1px;"/><path class="xtick ticks crisp" d="M0,421v5" transform="translate(208.6,0)" style="stroke: rgb(51, 51, 51); stroke-opacity: 1; stroke-width: 1px;"/><path class="xtick ticks crisp" d="M0,421v5" transform="translate(325.41999999999996,0)" style="stroke: rgb(51, 51, 51); stroke-opacity: 1; stroke-width: 1px;"/><path class="xtick ticks crisp" d="M0,421v5" transform="translate(442.25,0)" style="stroke: rgb(51, 51, 51); stroke-opacity: 1; stroke-width: 1px;"/><g class="xtick"><text text-anchor="middle" x="0" y="440.4" transform="translate(91.77,0)" style="font-family: 'Open Sans', verdana, arial, sans-serif; font-size: 12px; fill: rgb(51, 51, 51); fill-opacity: 1; white-space: pre; opacity: 1;">2005</text></g><g class="xtick"><text text-anchor="middle" x="0" y="440.4" style="font-family: 'Open Sans', verdana, arial, sans-serif; font-size: 12px; fill: rgb(51, 51, 51); fill-opacity: 1; white-space: pre; opacity: 1;" transform="translate(208.6,0)">2010</text></g><g class="xtick"><text text-anchor="middle" x="0" y="440.4" style="font-family: 'Open Sans', verdana, arial, sans-serif; font-size: 12px; fill: rgb(51, 51, 51); fill-opacity: 1; white-space: pre; opacity: 1;" transform="translate(325.41999999999996,0)">2015</text></g><g class="xtick"><text text-anchor="middle" x="0" y="440.4" style="font-family: 'Open Sans', verdana, arial, sans-serif; font-size: 12px; fill: rgb(51, 51, 51); fill-opacity: 1; white-space: pre; opacity: 1;" transform="translate(442.25,0)">2020</text></g></g><g class="yaxislayer-above"><path class="ytick ticks crisp" d="M79,0h-5" transform="translate(0,404.11)" style="stroke: rgb(51, 51, 51); stroke-opacity: 1; stroke-width: 1px;"/><path class="ytick ticks crisp" d="M79,0h-5" transform="translate(0,344.15)" style="stroke: rgb(51, 51, 51); stroke-opacity: 1; stroke-width: 1px;"/><path class="ytick ticks crisp" d="M79,0h-5" transform="translate(0,284.19)" style="stroke: rgb(51, 51, 51); stroke-opacity: 1; stroke-width: 1px;"/><path class="ytick ticks crisp" d="M79,0h-5" transform="translate(0,224.23000000000002)" style="stroke: rgb(51, 51, 51); stroke-opacity: 1; stroke-width: 1px;"/><path class="ytick ticks crisp" d="M79,0h-5" transform="translate(0,164.26999999999998)" style="stroke: rgb(51, 51, 51); stroke-opacity: 1; stroke-width: 1px;"/><path class="ytick ticks crisp" d="M79,0h-5" transform="translate(0,104.31)" style="stroke: rgb(51, 51, 51); stroke-opacity: 1; stroke-width: 1px;"/><g class="ytick"><text text-anchor="end" x="71.6" y="4.199999999999999" transform="translate(0,404.11)" style="font-family: 'Open Sans', verdana, arial, sans-serif; font-size: 12px; fill: rgb(51, 51, 51); fill-opacity: 1; white-space: pre; opacity: 1;">0</text></g><g class="ytick"><text text-anchor="end" x="71.6" y="4.199999999999999" style="font-family: 'Open Sans', verdana, arial, sans-serif; font-size: 12px; fill: rgb(51, 51, 51); fill-opacity: 1; white-space: pre; opacity: 1;" transform="translate(0,344.15)">2k</text></g><g class="ytick"><text text-anchor="end" x="71.6" y="4.199999999999999" style="font-family: 'Open Sans', verdana, arial, sans-serif; font-size: 12px; fill: rgb(51, 51, 51); fill-opacity: 1; white-space: pre; opacity: 1;" transform="translate(0,284.19)">4k</text></g><g class="ytick"><text text-anchor="end" x="71.6" y="4.199999999999999" style="font-family: 'Open Sans', verdana, arial, sans-serif; font-size: 12px; fill: rgb(51, 51, 51); fill-opacity: 1; white-space: pre; opacity: 1;" transform="translate(0,224.23000000000002)">6k</text></g><g class="ytick"><text text-anchor="end" x="71.6" y="4.199999999999999" style="font-family: 'Open Sans', verdana, arial, sans-serif; font-size: 12px; fill: rgb(51, 51, 51); fill-opacity: 1; white-space: pre; opacity: 1;" transform="translate(0,164.26999999999998)">8k</text></g><g class="ytick"><text text-anchor="end" x="71.6" y="4.199999999999999" style="font-family: 'Open Sans', verdana, arial, sans-serif; font-size: 12px; fill: rgb(51, 51, 51); fill-opacity: 1; white-space: pre; opacity: 1;" transform="translate(0,104.31)">10k</text></g></g><g class="overaxes-above"/></g></g><g class="polarlayer"/><g class="smithlayer"/><g class="ternarylayer"/><g class="geolayer"/><g class="funnelarealayer"/><g class="pielayer"/><g class="iciclelayer"/><g class="treemaplayer"/><g class="sunburstlayer"/><g class="glimages"/><defs id="topdefs-95c3dd"><g class="clips"/><clipPath id="legend95c3dd"><rect width="189" height="124" x="0" y="0"/></clipPath></defs><g class="layer-above"><g class="imagelayer"/><g class="shapelayer"/></g><g class="infolayer"><g class="legend" pointer-events="all" transform="translate(499.22,100)"><rect class="bg" shape-rendering="crispEdges" style="stroke: rgb(68, 68, 68); stroke-opacity: 1; fill: rgb(255, 255, 255); fill-opacity: 1; stroke-width: 0px;" width="189" height="124" x="0" y="0"/><g class="scrollbox" transform="" clip-path="url(#legend95c3dd)"><g class="groups"><g class="traces" transform="translate(0,14.5)" style="opacity: 1;"><text class="legendtext" text-anchor="start" x="40" y="4.680000000000001" style="font-family: 'Open Sans', verdana, arial, sans-serif; font-size: 12px; fill: rgb(51, 51, 51); fill-opacity: 1; white-space: pre;">LR-BACBATOTALNSAMO</text><g class="layers" style="opacity: 1;"><g class="legendfill"/><g class="legendlines"><path class="js-line" d="M5,0h30" style="fill: none; stroke: rgb(99, 110, 250); stroke-opacity: 1; stroke-width: 2px;"/></g><g class="legendsymbols"><g class="legendpoints"/></g></g><rect class="legendtoggle" x="0" y="-9.5" width="183.078125" height="19" style="fill: rgb(0, 0, 0); fill-opacity: 0;"/></g><g class="traces" transform="translate(0,33.5)" style="opacity: 1;"><text class="legendtext" text-anchor="start" x="40" y="4.680000000000001" style="font-family: 'Open Sans', verdana, arial, sans-serif; font-size: 12px; fill: rgb(51, 51, 51); fill-opacity: 1; white-space: pre;">BACBATOTALNSAMO</text><g class="layers" style="opacity: 0.3;"><g class="legendfill"/><g class="legendlines"><path class="js-line" d="M5,0h30" style="fill: none; stroke: rgb(99, 110, 250); stroke-opacity: 1; stroke-width: 2px;"/></g><g class="legendsymbols"><g class="legendpoints"/></g></g><rect class="legendtoggle" x="0" y="-9.5" width="183.078125" height="19" style="fill: rgb(0, 0, 0); fill-opacity: 0;"/></g><g class="traces" transform="translate(0,52.5)" style="opacity: 1;"><text class="legendtext" text-anchor="start" x="40" y="4.680000000000001" style="font-family: 'Open Sans', verdana, arial, sans-serif; font-size: 12px; fill: rgb(51, 51, 51); fill-opacity: 1; white-space: pre;">LR-BABATOTALNSAMO</text><g class="layers" style="opacity: 1;"><g class="legendfill"/><g class="legendlines"><path class="js-line" d="M5,0h30" style="fill: none; stroke: rgb(239, 85, 59); stroke-opacity: 1; stroke-width: 2px;"/></g><g class="legendsymbols"><g class="legendpoints"/></g></g><rect class="legendtoggle" x="0" y="-9.5" width="183.078125" height="19" style="fill: rgb(0, 0, 0); fill-opacity: 0;"/></g><g class="traces" transform="translate(0,71.5)" style="opacity: 1;"><text class="legendtext" text-anchor="start" x="40" y="4.680000000000001" style="font-family: 'Open Sans', verdana, arial, sans-serif; font-size: 12px; fill: rgb(51, 51, 51); fill-opacity: 1; white-space: pre;">BABATOTALNSAMO</text><g class="layers" style="opacity: 0.3;"><g class="legendfill"/><g class="legendlines"><path class="js-line" d="M5,0h30" style="fill: none; stroke: rgb(239, 85, 59); stroke-opacity: 1; stroke-width: 2px;"/></g><g class="legendsymbols"><g class="legendpoints"/></g></g><rect class="legendtoggle" x="0" y="-9.5" width="183.078125" height="19" style="fill: rgb(0, 0, 0); fill-opacity: 0;"/></g><g class="traces" transform="translate(0,90.5)" style="opacity: 1;"><text class="legendtext" text-anchor="start" x="40" y="4.680000000000001" style="font-family: 'Open Sans', verdana, arial, sans-serif; font-size: 12px; fill: rgb(51, 51, 51); fill-opacity: 1; white-space: pre;">LR-AVELISPRIYYMO</text><g class="layers" style="opacity: 1;"><g class="legendfill"/><g class="legendlines"><path class="js-line" d="M5,0h30" style="fill: none; stroke: rgb(0, 204, 150); stroke-opacity: 1; stroke-width: 2px;"/></g><g class="legendsymbols"><g class="legendpoints"/></g></g><rect class="legendtoggle" x="0" y="-9.5" width="183.078125" height="19" style="fill: rgb(0, 0, 0); fill-opacity: 0;"/></g><g class="traces" transform="translate(0,109.5)" style="opacity: 1;"><text class="legendtext" text-anchor="start" x="40" y="4.680000000000001" style="font-family: 'Open Sans', verdana, arial, sans-serif; font-size: 12px; fill: rgb(51, 51, 51); fill-opacity: 1; white-space: pre;">AVELISPRIYYMO</text><g class="layers" style="opacity: 0.3;"><g class="legendfill"/><g class="legendlines"><path class="js-line" d="M5,0h30" style="fill: none; stroke: rgb(0, 204, 150); stroke-opacity: 1; stroke-width: 2px;"/></g><g class="legendsymbols"><g class="legendpoints"/></g></g><rect class="legendtoggle" x="0" y="-9.5" width="183.078125" height="19" style="fill: rgb(0, 0, 0); fill-opacity: 0;"/></g></g></g><rect class="scrollbar" rx="20" ry="3" width="0" height="0" style="fill: rgb(128, 139, 164); fill-opacity: 1;" x="0" y="0"/></g><g class="g-gtitle"><text class="gtitle" x="350" y="50" text-anchor="middle" dy="0em" style="font-family: 'Open Sans', verdana, arial, sans-serif; font-size: 17px; fill: rgb(51, 51, 51); opacity: 1; font-weight: normal; white-space: pre;">Series Linear Regression</text></g><g class="g-xtitle"><text class="xtitle" x="285.5" y="468.20625" text-anchor="middle" style="font-family: 'Open Sans', verdana, arial, sans-serif; font-size: 14px; fill: rgb(51, 51, 51); opacity: 1; font-weight: normal; white-space: pre;">Date</text></g><g class="g-ytitle"><text class="ytitle" transform="rotate(-90,24.434375000000003,260)" x="24.434375000000003" y="260" text-anchor="middle" style="font-family: 'Open Sans', verdana, arial, sans-serif; font-size: 14px; fill: rgb(51, 51, 51); opacity: 1; font-weight: normal; white-space: pre;">Value</text></g></g></svg>