<svg class="main-svg" xmlns="http://www.w3.org/2000/svg" xmlns:xlink="http://www.w3.org/1999/xlink" width="700" height="500" style="" viewBox="0 0 700 500"><rect x="0" y="0" width="700" height="500" style="fill: rgb(255, 255, 255); fill-opacity: 1;"/><defs id="defs-fb743b"><g class="clips"><clipPath id="clipfb743bxyplot" class="plotclip"><rect width="430" height="320"/></clipPath><clipPath class="axesclip" id="clipfb743bx"><rect x="80" y="0" width="430" height="500"/></clipPath><clipPath class="axesclip" id="clipfb743by"><rect x="0" y="100" width="700" height="320"/></clipPath><clipPath class="axesclip" id="clipfb743bxy"><rect x="80" y="100" width="430" height="320"/></clipPath></g><g class="gradients"/><g class="patterns"/></defs><g class="bglayer"><rect class="bg" x="80" y="100" width="430" height="320" style="fill: rgb(237, 237, 237); fill-opacity: 1; stroke-width: 0;"/></g><g class="layer-below"><g class="imagelayer"/><g class="shapelayer"/></g><g class="cartesianlayer"><g class="subplot xy"><g class="layer-subplot"><g class="shapelayer"/><g class="imagelayer"/></g><g class="gridlayer"><g class="x"><path class="xgrid crisp" transform="translate(91.76,0)" d="M0,100v320" style="stroke: rgb(255, 255, 255); stroke-opacity: 1; stroke-width: 1px;"/><path class="xgrid crisp" transform="translate(208.48,0)" d="M0,100v320" style="stroke: rgb(255, 255, 255); stroke-opacity: 1; stroke-width: 1px;"/><path class="xgrid crisp" transform="translate(325.2,0)" d="M0,100v320" style="stroke: rgb(255, 255, 255); stroke-opacity: 1; stroke-width: 1px;"/><path class="xgrid crisp" transform="translate(441.92,0)" d="M0,100v320" style="stroke: rgb(255, 255, 255); stroke-opacity: 1; stroke-width: 1px;"/></g><g class="y"><path class="ygrid crisp" transform="translate(0,343.57)" d="M80,0h430" style="stroke: rgb(255, 255, 255); stroke-opacity: 1; stroke-width: 1px;"/><path class="ygrid crisp" transform="translate(0,283.94)" d="M80,0h430" style="stroke: rgb(255, 255, 255); stroke-opacity: 1; stroke-width: 1px;"/><path class="ygrid crisp" transform="translate(0,224.3)" d="M80,0h430" style="stroke: rgb(255, 255, 255); stroke-opacity: 1; stroke-width: 1px;"/><path class="ygrid crisp" transform="translate(0,164.66)" d="M80,0h430" style="stroke: rgb(255, 255, 255); stroke-opacity: 1; stroke-width: 1px;"/><path class="ygrid crisp" transform="translate(0,105.03)" d="M80,0h430" style="stroke: rgb(255, 255, 255); stroke-opacity: 1; stroke-width: 1px;"/></g></g><g class="zerolinelayer"><path class="yzl zl crisp" transform="translate(0,403.21)" d="M80,0h430" style="stroke: rgb(255, 255, 255); stroke-opacity: 1; stroke-width: 1px;"/></g><path class="xlines-below"/><path class="ylines-below"/><g class="overlines-below"/><g class="xaxislayer-below"/><g class="yaxislayer-below"/><g class="overaxes-below"/><g class="plot" transform="translate(80,100)" clip-path="url(#clipfb743bxyplot)"><g class="scatterlayer mlayer"><g class="trace scatter trace095542" style="stroke-miterlimit: 2; opacity: 1;"><g class="fills"/><g class="errorbars"/><g class="lines"><path class="js-line" d="M0,283.65L1.98,283.5L3.96,284.6L5.88,279.56L7.86,284.96L9.78,281.83L11.76,282.07L13.74,280.07L15.53,270.85L17.51,278.85L19.43,281.68L21.41,277L23.33,283.97L25.31,281.53L27.29,283.71L29.21,281.71L31.19,277.12L33.11,280.13L35.09,280.25L37.07,278.73L38.86,270.29L40.85,278.55L42.76,270.82L44.75,281.8L46.66,282.84L48.64,278.28L50.63,282.57L52.54,283.86L54.53,281.65L60.41,280.04L62.2,272.26L64.18,282.6L66.09,279.62L68.08,276.64L69.99,283.47L71.98,277.95L73.96,285.38L75.87,288.69L77.86,286.99L79.77,289.76L81.76,289.01L83.74,286.12L85.59,288.18L87.57,289.79L89.49,287.58L91.47,290.45L93.39,287.94L95.37,292.2L97.35,291.91L99.27,289.61L101.25,293.46L103.17,289.55L105.15,290.92L107.13,291.34L108.92,289.31L110.9,287.76L112.82,292.03L116.72,291.16L118.7,292.89L120.68,291.61L122.6,292.23L124.58,293.46L126.5,292.06L128.48,292.47L130.46,292L132.25,292.03L134.24,289.55L136.15,292.38L138.13,293.78L140.05,291.73L142.03,293.46L144.02,292.26L145.93,293.84L147.91,293.93L149.83,292.32L151.81,293.43L153.8,293.52L157.57,292.23L159.48,295.31L161.47,295.31L163.38,292.83L165.36,295.48L167.35,293.07L169.26,295.6L171.25,294.8L173.16,293.13L175.14,295.19L177.13,294.2L178.98,290.3L180.96,293.43L182.88,294.41L184.86,293.1L186.78,295.6L188.76,292.74L190.74,296.17L192.66,294.32L194.64,295.22L196.56,293.13L198.54,292.86L200.52,294.8L202.31,293.75L204.29,296.2L206.21,295.39L208.19,296.71L210.11,295.63L212.09,296.23L214.07,295.99L215.99,294.41L217.97,297.27L219.89,295.9L221.87,292.98L223.85,295.13L225.64,294.56L227.62,295.54L229.54,293.87L231.52,295.99L233.44,294.02L235.42,295.34L237.4,295.69L239.32,293.64L241.3,295.63L245.2,293.28L247.18,294.05L248.97,293.93L250.96,292.35L252.87,295.39L254.86,295.75L256.77,295.22L258.75,296.08L260.74,293.9L262.65,296.86L264.64,296.44L266.55,295.04L270.52,295.34L272.37,291.22L274.35,295.04L276.27,295.28L280.17,295.87L282.15,294.02L284.13,296.02L286.05,296.2L288.03,294.29L289.95,296.2L291.93,294.62L293.91,295.16L295.7,292.26L297.68,295.63L299.6,293.61L301.58,295.51L303.5,296.89L305.48,294.02L307.46,294.35L309.38,295.63L311.36,293.46L313.28,296.53L315.26,292.11L317.24,294.92L319.03,291.88L321.01,295.31L322.93,293.58L324.91,294.95L326.83,296.2L328.81,293.67L330.79,296.23L332.71,296.65L334.69,293.75L336.61,296.23L338.59,293.4L340.57,294.83L342.36,294.29L344.35,294.83L346.26,293.67L348.24,294.65L350.16,296.14L352.14,289.01L354.13,295.39L356.04,293.67L358.02,296.35L359.94,296.14L361.92,292.2L363.91,295.57L365.76,296.08L367.74,295.66L371.64,296.68L373.56,292.44L375.54,295.51L377.52,294.05L379.44,295.84L381.42,295.28L383.34,295.34L385.32,291.7L387.3,294.68L389.09,290.65L391.07,293.84L392.99,293.75L394.97,293.16L396.89,295.54L398.87,294.44L400.85,292.2L402.77,295.07L404.75,295.34L406.67,291.13L408.65,293.73L410.63,295.78L412.42,292.38L414.4,295.9L416.32,294.95L418.3,293.52L420.22,296.08L422.2,292.92L424.18,296.86L426.1,296.38L428.08,294.44L430,296.83" style="vector-effect: non-scaling-stroke; fill: none; stroke: rgb(248, 118, 109); stroke-opacity: 1; stroke-width: 2px; opacity: 1;"/></g><g class="points"/><g class="text"/></g><g class="trace scatter tracef32d97" style="stroke-miterlimit: 2; opacity: 1;"><g class="fills"/><g class="errorbars"/><g class="lines"><path class="js-line" d="M0,211.31L1.98,215.48L3.96,211.58L5.88,189.51L7.86,210L9.78,199.95L11.76,207.22L13.74,185.16L15.53,150.57L17.51,190.76L19.43,198.49L21.41,180.83L23.33,210.38L25.31,201.56L27.29,202.78L29.21,197.08L31.19,173.59L33.11,206L35.09,195.59L38.86,136.52L40.85,178.15L42.76,154.39L44.75,199.71L46.66,200.9L48.64,177.46L50.63,203.94L52.54,208.27L54.53,197.92L56.44,204.69L58.42,200.45L60.41,175.2L62.2,152.27L64.18,192.05L66.09,189.84L68.08,179.61L69.99,209.94L71.98,180.06L73.96,203.26L75.87,201.97L77.86,188.53L79.77,207.46L81.76,201.65L83.74,159.34L85.59,182.15L87.57,188.35L89.49,173.26L91.47,206.66L93.39,188.83L95.37,204.51L97.35,207.25L99.27,192.82L101.25,217.93L103.17,206.98L107.13,199.8L108.92,190.32L110.9,173.62L112.82,207.13L114.8,210.41L116.72,192.79L118.7,212.8L120.68,191.63L122.6,213.4L124.58,210.06L126.5,205.11L128.48,205.79L130.46,187.19L132.25,187.75L134.24,167.45L136.15,197.05L138.13,208.33L140.05,191.39L142.03,209.64L144.02,185.19L145.93,208.74L147.91,204.45L149.83,201.68L151.81,191.93L153.8,187.22L155.58,185.9L157.57,165.21L159.48,213.13L161.47,204.03L163.38,183.64L165.36,207.19L167.35,188.94L169.26,213.99L171.25,206.72L173.16,190.44L175.14,208.09L178.98,151.28L180.96,188.62L182.88,195.74L184.86,180.74L186.78,210.74L188.76,181.82L190.74,209.79L192.66,209.49L194.64,196.22L196.56,196.34L198.54,156.77L200.52,187.45L202.31,184.5L204.29,197.71L206.21,183.37L208.19,205.43L210.11,182.44L212.09,202.6L214.07,211.73L215.99,186.53L217.97,212.35L219.89,219.75L221.87,172.34L223.85,185.55L225.64,182.56L227.62,190.88L229.54,178.51L231.52,205.49L233.44,189.96L235.42,204.18L237.4,206.12L239.32,184.47L241.3,212.05L243.22,209.88L245.2,165.03L247.18,178.54L248.97,179.52L250.96,157.7L252.87,197L254.86,199.11L256.77,176.48L258.75,197.74L260.74,173.89L262.65,201.35L264.64,208.45L266.55,196.1L268.53,163.39L270.52,163.39L272.37,137.51L274.35,171.86L276.27,181.1L278.25,173.8L280.17,190.11L282.15,152.75L284.13,191.21L286.05,199.8L288.03,172.96L289.95,204.45L291.93,158.68L293.91,157.01L295.7,117.35L297.68,169.38L299.6,147.86L301.58,182.12L303.5,189.84L305.48,149.5L307.46,183.58L309.38,180.71L311.36,157.28L313.28,205.76L315.26,138.88L317.24,148.54L319.03,100.92L321.01,158.32L322.93,138.52L324.91,165.24L326.83,181.01L328.81,134.62L330.79,177.46L332.71,181.64L334.69,167.18L336.61,192.61L338.59,118.84L340.57,139.54L342.36,143.92L344.35,155.37L346.26,136.49L348.24,172.31L350.16,177.97L352.14,119.41L354.13,177.02L356.04,152.78L358.02,196.7L359.94,194.46L361.92,118.07L363.91,147.56L365.76,169.26L367.74,146.16L369.66,149.08L371.64,148.54L373.56,34.37L375.54,95.94L377.52,90.22L379.44,140.31L381.42,159.42L383.34,152.3L385.32,59.98L387.3,101.82L389.09,16L391.07,51.24L392.99,81.9L394.97,69.64L396.89,130.59L398.87,128.71L400.85,84.52L402.77,134.79L404.75,148.3L406.67,114.91L408.65,71.67L410.63,96.06L412.42,24.8L414.4,93.29L416.32,116.43L418.3,84.4L420.22,127.85L422.2,79.9L424.18,131.31L426.1,129.82L428.08,114.58L430,159.51" style="vector-effect: non-scaling-stroke; fill: none; stroke: rgb(163, 165, 0); stroke-opacity: 1; stroke-width: 2px; opacity: 1;"/></g><g class="points"/><g class="text"/></g><g class="trace scatter tracecd27d1" style="stroke-miterlimit: 2; opacity: 1;"><g class="fills"/><g class="errorbars"/><g class="lines"><path class="js-line" d="M303.5,302.92L375.54,302.76L377.52,301.25L379.44,302.74L381.42,302.75L398.87,303.02L400.85,304L402.77,303.03L404.75,302.99L424.18,302.97L426.1,303.01L430,302.92L430,302.92" style="vector-effect: non-scaling-stroke; fill: none; stroke: rgb(0, 191, 125); stroke-opacity: 1; stroke-width: 2px; opacity: 1;"/></g><g class="points"/><g class="text"/></g></g></g><g class="overplot"/><path class="xlines-above crisp" d="" style="fill: none; stroke-width: 1px; stroke: rgb(0, 0, 0); stroke-opacity: 0;"/><path class="ylines-above crisp" d="" style="fill: none; stroke-width: 1px; stroke: rgb(0, 0, 0); stroke-opacity: 0;"/><g class="overlines-above"/><g class="xaxislayer-above"><path class="xtick ticks crisp" d="M0,421v5" transform="translate(91.76,0)" style="stroke: rgb(51, 51, 51); stroke-opacity: 1; stroke-width: 1px;"/><path class="xtick ticks crisp" d="M0,421v5" transform="translate(208.48,0)" style="stroke: rgb(51, 51, 51); stroke-opacity: 1; stroke-width: 1px;"/><path class="xtick ticks crisp" d="M0,421v5" transform="translate(325.2,0)" style="stroke: rgb(51, 51, 51); stroke-opacity: 1; stroke-width: 1px;"/><path class="xtick ticks crisp" d="M0,421v5" transform="translate(441.92,0)" style="stroke: rgb(51, 51, 51); stroke-opacity: 1; stroke-width: 1px;"/><g class="xtick"><text text-anchor="middle" x="0" y="440.4" transform="translate(91.76,0)" style="font-family: 'Open Sans', verdana, arial, sans-serif; font-size: 12px; fill: rgb(51, 51, 51); fill-opacity: 1; white-space: pre; opacity: 1;">2005</text></g><g class="xtick"><text text-anchor="middle" x="0" y="440.4" style="font-family: 'Open Sans', verdana, arial, sans-serif; font-size: 12px; fill: rgb(51, 51, 51); fill-opacity: 1; white-space: pre; opacity: 1;" transform="translate(208.48,0)">2010</text></g><g class="xtick"><text text-anchor="middle" x="0" y="440.4" style="font-family: 'Open Sans', verdana, arial, sans-serif; font-size: 12px; fill: rgb(51, 51, 51); fill-opacity: 1; white-space: pre; opacity: 1;" transform="translate(325.2,0)">2015</text></g><g class="xtick"><text text-anchor="middle" x="0" y="440.4" style="font-family: 'Open Sans', verdana, arial, sans-serif; font-size: 12px; fill: rgb(51, 51, 51); fill-opacity: 1; white-space: pre; opacity: 1;" transform="translate(441.92,0)">2020</text></g></g><g class="yaxislayer-above"><path class="ytick ticks crisp" d="M79,0h-5" transform="translate(0,403.21)" style="stroke: rgb(51, 51, 51); stroke-opacity: 1; stroke-width: 1px;"/><path class="ytick ticks crisp" d="M79,0h-5" transform="translate(0,343.57)" style="stroke: rgb(51, 51, 51); stroke-opacity: 1; stroke-width: 1px;"/><path class="ytick ticks crisp" d="M79,0h-5" transform="translate(0,283.94)" style="stroke: rgb(51, 51, 51); stroke-opacity: 1; stroke-width: 1px;"/><path class="ytick ticks crisp" d="M79,0h-5" transform="translate(0,224.3)" style="stroke: rgb(51, 51, 51); stroke-opacity: 1; stroke-width: 1px;"/><path class="ytick ticks crisp" d="M79,0h-5" transform="translate(0,164.66)" style="stroke: rgb(51, 51, 51); stroke-opacity: 1; stroke-width: 1px;"/><path class="ytick ticks crisp" d="M79,0h-5" transform="translate(0,105.03)" style="stroke: rgb(51, 51, 51); stroke-opacity: 1; stroke-width: 1px;"/><g class="ytick"><text text-anchor="end" x="71.6" y="4.199999999999999" transform="translate(0,403.21)" style="font-family: 'Open Sans', verdana, arial, sans-serif; font-size: 12px; fill: rgb(51, 51, 51); fill-opacity: 1; white-space: pre; opacity: 1;">0</text></g><g class="ytick"><text text-anchor="end" x="71.6" y="4.199999999999999" style="font-family: 'Open Sans', verdana, arial, sans-serif; font-size: 12px; fill: rgb(51, 51, 51); fill-opacity: 1; white-space: pre; opacity: 1;" transform="translate(0,343.57)">2k</text></g><g class="ytick"><text text-anchor="end" x="71.6" y="4.199999999999999" style="font-family: 'Open Sans', verdana, arial, sans-serif; font-size: 12px; fill: rgb(51, 51, 51); fill-opacity: 1; white-space: pre; opacity: 1;" transform="translate(0,283.94)">4k</text></g><g class="ytick"><text text-anchor="end" x="71.6" y="4.199999999999999" style="font-family: 'Open Sans', verdana, arial, sans-serif; font-size: 12px; fill: rgb(51, 51, 51); fill-opacity: 1; white-space: pre; opacity: 1;" transform="translate(0,224.3)">6k</text></g><g class="ytick"><text text-anchor="end" x="71.6" y="4.199999999999999" style="font-family: 'Open Sans', verdana, arial, sans-serif; font-size: 12px; fill: rgb(51, 51, 51); fill-opacity: 1; white-space: pre; opacity: 1;" transform="translate(0,164.66)">8k</text></g><g class="ytick"><text text-anchor="end" x="71.6" y="4.199999999999999" style="font-family: 'Open Sans', verdana, arial, sans-serif; font-size: 12px; fill: rgb(51, 51, 51); fill-opacity: 1; white-space: pre; opacity: 1;" transform="translate(0,105.03)">10k</text></g></g><g class="overaxes-above"/></g></g><g class="polarlayer"/><g class="smithlayer"/><g class="ternarylayer"/><g class="geolayer"/><g class="funnelarealayer"/><g class="pielayer"/><g class="iciclelayer"/><g class="treemaplayer"/><g class="sunburstlayer"/><g class="glimages"/><defs id="topdefs-fb743b"><g class="clips"/><clipPath id="legendfb743b"><rect width="169" height="67" x="0" y="0"/></clipPath></defs><g class="layer-above"><g class="imagelayer"/><g class="shapelayer"/></g><g class="infolayer"><g class="legend" pointer-events="all" transform="translate(518.6,100)"><rect class="bg" shape-rendering="crispEdges" style="stroke: rgb(68, 68, 68); stroke-opacity: 1; fill: rgb(255, 255, 255); fill-opacity: 1; stroke-width: 0px;" width="169" height="67" x="0" y="0"/><g class="scrollbox" transform="" clip-path="url(#legendfb743b)"><g class="groups"><g class="traces" transform="translate(0,14.5)" style="opacity: 1;"><text class="legendtext" text-anchor="start" x="40" y="4.680000000000001" style="font-family: 'Open Sans', verdana, arial, sans-serif; font-size: 12px; fill: rgb(51, 51, 51); fill-opacity: 1; white-space: pre;">BACBATOTALNSAMO</text><g class="layers" style="opacity: 1;"><g class="legendfill"/><g class="legendlines"><path class="js-line" d="M5,0h30" style="fill: none; stroke: rgb(248, 118, 109); stroke-opacity: 1; stroke-width: 2px;"/></g><g class="legendsymbols"><g class="legendpoints"/></g></g><rect class="legendtoggle" x="0" y="-9.5" width="163.1875" height="19" style="fill: rgb(0, 0, 0); fill-opacity: 0;"/></g><g class="traces" transform="translate(0,33.5)" style="opacity: 1;"><text class="legendtext" text-anchor="start" x="40" y="4.680000000000001" style="font-family: 'Open Sans', verdana, arial, sans-serif; font-size: 12px; fill: rgb(51, 51, 51); fill-opacity: 1; white-space: pre;">BABATOTALNSAMO</text><g class="layers" style="opacity: 1;"><g class="legendfill"/><g class="legendlines"><path class="js-line" d="M5,0h30" style="fill: none; stroke: rgb(163, 165, 0); stroke-opacity: 1; stroke-width: 2px;"/></g><g class="legendsymbols"><g class="legendpoints"/></g></g><rect class="legendtoggle" x="0" y="-9.5" width="163.1875" height="19" style="fill: rgb(0, 0, 0); fill-opacity: 0;"/></g><g class="traces" transform="translate(0,52.5)" style="opacity: 1;"><text class="legendtext" text-anchor="start" x="40" y="4.680000000000001" style="font-family: 'Open Sans', verdana, arial, sans-serif; font-size: 12px; fill: rgb(51, 51, 51); fill-opacity: 1; white-space: pre;">AVELISPRIYYMO</text><g class="layers" style="opacity: 1;"><g class="legendfill"/><g class="legendlines"><path class="js-line" d="M5,0h30" style="fill: none; stroke: rgb(0, 191, 125); stroke-opacity: 1; stroke-width: 2px;"/></g><g class="legendsymbols"><g class="legendpoints"/></g></g><rect class="legendtoggle" x="0" y="-9.5" width="163.1875" height="19" style="fill: rgb(0, 0, 0); fill-opacity: 0;"/></g></g></g><rect class="scrollbar" rx="20" ry="3" width="0" height="0" style="fill: rgb(128, 139, 164); fill-opacity: 1;" x="0" y="0"/></g><g class="g-gtitle"><text class="gtitle" x="350" y="50" text-anchor="middle" dy="0em" style="font-family: 'Open Sans', verdana, arial, sans-serif; font-size: 17px; fill: rgb(51, 51, 51); opacity: 1; font-weight: normal; white-space: pre;">Series Over Time</text></g><g class="g-xtitle"><text class="xtitle" x="295" y="468.20625" text-anchor="middle" style="font-family: 'Open Sans', verdana, arial, sans-serif; font-size: 14px; fill: rgb(51, 51, 51); opacity: 1; font-weight: normal; white-space: pre;">Date</text></g><g class="g-ytitle"><text class="ytitle" transform="rotate(-90,24.434375000000003,260)" x="24.434375000000003" y="260" text-anchor="middle" style="font-family: 'Open Sans', verdana, arial, sans-serif; font-size: 14px; fill: rgb(51, 51, 51); opacity: 1; font-weight: normal; white-space: pre;">Value</text></g></g></svg>