<svg class="main-svg" xmlns="http://www.w3.org/2000/svg" xmlns:xlink="http://www.w3.org/1999/xlink" width="700" height="500" style="" viewBox="0 0 700 500"><rect x="0" y="0" width="700" height="500" style="fill: rgb(255, 255, 255); fill-opacity: 1;"/><defs id="defs-0e0914"><g class="clips"><clipPath id="clip0e0914xyplot" class="plotclip"><rect width="411" height="320"/></clipPath><clipPath class="axesclip" id="clip0e0914x"><rect x="80" y="0" width="411" height="500"/></clipPath><clipPath class="axesclip" id="clip0e0914y"><rect x="0" y="100" width="700" height="320"/></clipPath><clipPath class="axesclip" id="clip0e0914xy"><rect x="80" y="100" width="411" height="320"/></clipPath></g><g class="gradients"/><g class="patterns"/></defs><g class="bglayer"><rect class="bg" x="80" y="100" width="411" height="320" style="fill: rgb(237, 237, 237); fill-opacity: 1; stroke-width: 0;"/></g><g class="layer-below"><g class="imagelayer"/><g class="shapelayer"/></g><g class="cartesianlayer"><g class="subplot xy"><g class="layer-subplot"><g class="shapelayer"/><g class="imagelayer"/></g><g class="gridlayer"><g class="x"><path class="xgrid crisp" transform="translate(91.24,0)" d="M0,100v320" style="stroke: rgb(255, 255, 255); stroke-opacity: 1; stroke-width: 1px;"/><path class="xgrid crisp" transform="translate(202.81,0)" d="M0,100v320" style="stroke: rgb(255, 255, 255); stroke-opacity: 1; stroke-width: 1px;"/><path class="xgrid crisp" transform="translate(314.37,0)" d="M0,100v320" style="stroke: rgb(255, 255, 255); stroke-opacity: 1; stroke-width: 1px;"/><path class="xgrid crisp" transform="translate(425.93,0)" d="M0,100v320" style="stroke: rgb(255, 255, 255); stroke-opacity: 1; stroke-width: 1px;"/></g><g class="y"><path class="ygrid crisp" transform="translate(0,343.57)" d="M80,0h411" style="stroke: rgb(255, 255, 255); stroke-opacity: 1; stroke-width: 1px;"/><path class="ygrid crisp" transform="translate(0,283.94)" d="M80,0h411" style="stroke: rgb(255, 255, 255); stroke-opacity: 1; stroke-width: 1px;"/><path class="ygrid crisp" transform="translate(0,224.3)" d="M80,0h411" style="stroke: rgb(255, 255, 255); stroke-opacity: 1; stroke-width: 1px;"/><path class="ygrid crisp" transform="translate(0,164.66)" d="M80,0h411" style="stroke: rgb(255, 255, 255); stroke-opacity: 1; stroke-width: 1px;"/><path class="ygrid crisp" transform="translate(0,105.03)" d="M80,0h411" style="stroke: rgb(255, 255, 255); stroke-opacity: 1; stroke-width: 1px;"/></g></g><g class="zerolinelayer"><path class="yzl zl crisp" transform="translate(0,403.21)" d="M80,0h411" style="stroke: rgb(255, 255, 255); stroke-opacity: 1; stroke-width: 1px;"/></g><path class="xlines-below"/><path class="ylines-below"/><g class="overlines-below"/><g class="xaxislayer-below"/><g class="yaxislayer-below"/><g class="overaxes-below"/><g class="plot" transform="translate(80,100)" clip-path="url(#clip0e0914xyplot)"><g class="scatterlayer mlayer"><g class="trace scatter traceb86ec7" style="stroke-miterlimit: 2; opacity: 1;"><g class="fills"/><g class="errorbars"/><g class="lines"><path class="js-line" d="M0,284.2L396.09,298.12L397.93,298.18L411,298.71" style="vector-effect: non-scaling-stroke; fill: none; stroke: rgb(99, 110, 250); stroke-opacity: 1; stroke-width: 2px; opacity: 1;"/></g><g class="points"/><g class="text"/></g><g class="trace scatter trace3aba75" style="stroke-miterlimit: 2; opacity: 0.3;"><g class="fills"/><g class="errorbars"/><g class="lines"><path class="js-line" d="M0,283.65L1.89,283.5L3.79,284.6L5.62,279.56L7.51,284.96L9.35,281.83L11.24,282.07L13.14,280.07L14.85,270.85L16.74,278.85L18.57,281.68L20.47,277L22.3,283.97L24.19,281.53L26.09,283.71L27.92,281.71L29.82,277.12L31.65,280.13L33.54,280.25L35.44,278.73L37.15,270.29L39.04,278.55L40.87,270.82L42.77,281.8L44.6,282.84L46.49,278.28L48.39,282.57L50.22,283.86L52.12,281.65L57.74,280.04L59.45,272.26L61.34,282.6L63.17,279.62L65.07,276.64L66.9,283.47L68.8,277.95L70.69,285.38L72.52,288.69L74.42,286.99L76.25,289.76L78.14,289.01L80.04,286.12L81.81,288.18L83.7,289.79L85.54,287.58L87.43,290.45L89.26,287.94L91.16,292.2L93.05,291.91L94.88,289.61L96.78,293.46L98.61,289.55L100.5,290.92L102.4,291.34L104.11,289.31L106,287.76L107.84,292.03L111.56,291.16L113.46,292.89L115.35,291.61L117.18,292.23L119.08,293.46L120.91,292.06L122.81,292.47L124.7,292L126.41,292.03L128.3,289.55L130.14,292.38L132.03,293.78L133.86,291.73L135.76,293.46L137.65,292.26L139.48,293.84L141.38,293.93L143.21,292.32L145.11,293.43L147,293.52L150.6,292.23L152.44,295.31L154.33,295.31L156.16,292.83L158.06,295.48L159.95,293.07L161.79,295.6L163.68,294.8L165.51,293.13L167.41,295.19L169.3,294.2L171.07,290.3L172.97,293.43L174.8,294.41L176.69,293.1L178.53,295.6L180.42,292.74L182.31,296.17L184.15,294.32L186.04,295.22L187.87,293.13L189.77,292.86L191.66,294.8L193.37,293.75L195.27,296.2L197.1,295.39L198.99,296.71L200.83,295.63L202.72,296.23L204.61,295.99L206.45,294.41L208.34,297.27L210.17,295.9L212.07,292.98L213.96,295.13L215.67,294.56L217.57,295.54L219.4,293.87L221.29,295.99L223.13,294.02L225.02,295.34L226.91,295.69L228.75,293.64L230.64,295.63L234.37,293.28L236.26,294.05L237.97,293.93L239.87,292.35L241.7,295.39L243.59,295.75L245.43,295.22L247.32,296.08L249.21,293.9L251.05,296.86L252.94,296.44L254.77,295.04L258.56,295.34L260.33,291.22L262.23,295.04L264.06,295.28L267.79,295.87L269.68,294.02L271.58,296.02L273.41,296.2L275.3,294.29L277.14,296.2L279.03,294.62L280.92,295.16L282.64,292.26L284.53,295.63L286.36,293.61L288.26,295.51L290.09,296.89L291.98,294.02L293.88,294.35L295.71,295.63L297.6,293.46L299.44,296.53L301.33,292.11L303.22,294.92L304.94,291.88L306.83,295.31L308.66,293.58L310.56,294.95L312.39,296.2L314.28,293.67L316.18,296.23L318.01,296.65L319.9,293.75L321.74,296.23L323.63,293.4L325.53,294.83L327.24,294.29L329.13,294.83L330.96,293.67L332.86,294.65L334.69,296.14L336.58,289.01L338.48,295.39L340.31,293.67L342.2,296.35L344.04,296.14L345.93,292.2L347.83,295.57L349.6,296.08L351.49,295.66L355.22,296.68L357.05,292.44L358.95,295.51L360.84,294.05L362.67,295.84L364.57,295.28L366.4,295.34L368.29,291.7L370.19,294.68L371.9,290.65L373.79,293.84L375.62,293.75L377.52,293.16L379.35,295.54L381.25,294.44L383.14,292.2L384.97,295.07L386.87,295.34L388.7,291.13L390.59,293.73L392.49,295.78L394.2,292.38L396.09,295.9L397.93,294.95L399.82,293.52L401.65,296.08L403.55,292.92L405.44,296.86L407.27,296.38L409.17,294.44L411,296.83L411,296.83" style="vector-effect: non-scaling-stroke; fill: none; stroke: rgb(99, 110, 250); stroke-opacity: 1; stroke-width: 2px; opacity: 1;"/></g><g class="points"/><g class="text"/></g><g class="trace scatter tracebf23d6" style="stroke-miterlimit: 2; opacity: 1;"><g class="fills"/><g class="errorbars"/><g class="lines"><path class="js-line" d="M0,216.69L163.68,182.16L165.51,181.77L299.44,153.52L301.33,153.12L411,129.97L411,129.58" style="vector-effect: non-scaling-stroke; fill: none; stroke: rgb(239, 85, 59); stroke-opacity: 1; stroke-width: 2px; opacity: 1;"/></g><g class="points"/><g class="text"/></g><g class="trace scatter traced255f9" style="stroke-miterlimit: 2; opacity: 0.3;"><g class="fills"/><g class="errorbars"/><g class="lines"><path class="js-line" d="M0,211.31L1.89,215.48L3.79,211.58L5.62,189.51L7.51,210L9.35,199.95L11.24,207.22L13.14,185.16L14.85,150.57L16.74,190.76L18.57,198.49L20.47,180.83L22.3,210.38L24.19,201.56L26.09,202.78L27.92,197.08L29.82,173.59L31.65,206L33.54,195.59L37.15,136.52L39.04,178.15L40.87,154.39L42.77,199.71L44.6,200.9L46.49,177.46L48.39,203.94L50.22,208.27L52.12,197.92L53.95,204.69L55.84,200.45L57.74,175.2L59.45,152.27L61.34,192.05L63.17,189.84L65.07,179.61L66.9,209.94L68.8,180.06L70.69,203.26L72.52,201.97L74.42,188.53L76.25,207.46L78.14,201.65L80.04,159.34L81.81,182.15L83.7,188.35L85.54,173.26L87.43,206.66L89.26,188.83L91.16,204.51L93.05,207.25L94.88,192.82L96.78,217.93L98.61,206.98L102.4,199.8L104.11,190.32L106,173.62L107.84,207.13L109.73,210.41L111.56,192.79L113.46,212.8L115.35,191.63L117.18,213.4L119.08,210.06L120.91,205.11L122.81,205.79L124.7,187.19L126.41,187.75L128.3,167.45L130.14,197.05L132.03,208.33L133.86,191.39L135.76,209.64L137.65,185.19L139.48,208.74L141.38,204.45L143.21,201.68L145.11,191.93L147,187.22L148.71,185.9L150.6,165.21L152.44,213.13L154.33,204.03L156.16,183.64L158.06,207.19L159.95,188.94L161.79,213.99L163.68,206.72L165.51,190.44L167.41,208.09L171.07,151.28L172.97,188.62L174.8,195.74L176.69,180.74L178.53,210.74L180.42,181.82L182.31,209.79L184.15,209.49L186.04,196.22L187.87,196.34L189.77,156.77L191.66,187.45L193.37,184.5L195.27,197.71L197.1,183.37L198.99,205.43L200.83,182.44L202.72,202.6L204.61,211.73L206.45,186.53L208.34,212.35L210.17,219.75L212.07,172.34L213.96,185.55L215.67,182.56L217.57,190.88L219.4,178.51L221.29,205.49L223.13,189.96L225.02,204.18L226.91,206.12L228.75,184.47L230.64,212.05L232.47,209.88L234.37,165.03L236.26,178.54L237.97,179.52L239.87,157.7L241.7,197L243.59,199.11L245.43,176.48L247.32,197.74L249.21,173.89L251.05,201.35L252.94,208.45L254.77,196.1L256.67,163.39L258.56,163.39L260.33,137.51L262.23,171.86L264.06,181.1L265.96,173.8L267.79,190.11L269.68,152.75L271.58,191.21L273.41,199.8L275.3,172.96L277.14,204.45L279.03,158.68L280.92,157.01L282.64,117.35L284.53,169.38L286.36,147.86L288.26,182.12L290.09,189.84L291.98,149.5L293.88,183.58L295.71,180.71L297.6,157.28L299.44,205.76L301.33,138.88L303.22,148.54L304.94,100.92L306.83,158.32L308.66,138.52L310.56,165.24L312.39,181.01L314.28,134.62L316.18,177.46L318.01,181.64L319.9,167.18L321.74,192.61L323.63,118.84L325.53,139.54L327.24,143.92L329.13,155.37L330.96,136.49L332.86,172.31L334.69,177.97L336.58,119.41L338.48,177.02L340.31,152.78L342.2,196.7L344.04,194.46L345.93,118.07L347.83,147.56L349.6,169.26L351.49,146.16L353.32,149.08L355.22,148.54L357.05,34.37L358.95,95.94L360.84,90.22L362.67,140.31L364.57,159.42L366.4,152.3L368.29,59.98L370.19,101.82L371.9,16L373.79,51.24L375.62,81.9L377.52,69.64L379.35,130.59L381.25,128.71L383.14,84.52L384.97,134.79L386.87,148.3L388.7,114.91L390.59,71.67L392.49,96.06L394.2,24.8L396.09,93.29L397.93,116.43L399.82,84.4L401.65,127.85L403.55,79.9L405.44,131.31L407.27,129.82L409.17,114.58L411,159.51" style="vector-effect: non-scaling-stroke; fill: none; stroke: rgb(239, 85, 59); stroke-opacity: 1; stroke-width: 2px; opacity: 1;"/></g><g class="points"/><g class="text"/></g><g class="trace scatter trace2433c1" style="stroke-miterlimit: 2; opacity: 1;"><g class="fills"/><g class="errorbars"/><g class="lines"><path class="js-line" d="M290.09,302.98L411,302.93L411,302.93" style="vector-effect: non-scaling-stroke; fill: none; stroke: rgb(0, 204, 150); stroke-opacity: 1; stroke-width: 2px; opacity: 1;"/></g><g class="points"/><g class="text"/></g><g class="trace scatter trace4fb900" style="stroke-miterlimit: 2; opacity: 0.3;"><g class="fills"/><g class="errorbars"/><g class="lines"><path class="js-line" d="M290.09,302.92L358.95,302.76L360.84,301.25L362.67,302.74L364.57,302.75L381.25,303.02L383.14,304L384.97,303.03L386.87,302.99L405.44,302.97L407.27,303.01L411,302.92L411,302.92" style="vector-effect: non-scaling-stroke; fill: none; stroke: rgb(0, 204, 150); stroke-opacity: 1; stroke-width: 2px; opacity: 1;"/></g><g class="points"/><g class="text"/></g></g></g><g class="overplot"/><path class="xlines-above crisp" d="" style="fill: none; stroke-width: 1px; stroke: rgb(0, 0, 0); stroke-opacity: 0;"/><path class="ylines-above crisp" d="" style="fill: none; stroke-width: 1px; stroke: rgb(0, 0, 0); stroke-opacity: 0;"/><g class="overlines-above"/><g class="xaxislayer-above"><path class="xtick ticks crisp" d="M0,421v5" transform="translate(91.24,0)" style="stroke: rgb(51, 51, 51); stroke-opacity: 1; stroke-width: 1px;"/><path class="xtick ticks crisp" d="M0,421v5" transform="translate(202.81,0)" style="stroke: rgb(51, 51, 51); stroke-opacity: 1; stroke-width: 1px;"/><path class="xtick ticks crisp" d="M0,421v5" transform="translate(314.37,0)" style="stroke: rgb(51, 51, 51); stroke-opacity: 1; stroke-width: 1px;"/><path class="xtick ticks crisp" d="M0,421v5" transform="translate(425.93,0)" style="stroke: rgb(51, 51, 51); stroke-opacity: 1; stroke-width: 1px;"/><g class="xtick"><text text-anchor="middle" x="0" y="440.4" transform="translate(91.24,0)" style="font-family: 'Open Sans', verdana, arial, sans-serif; font-size: 12px; fill: rgb(51, 51, 51); fill-opacity: 1; white-space: pre; opacity: 1;">2005</text></g><g class="xtick"><text text-anchor="middle" x="0" y="440.4" style="font-family: 'Open Sans', verdana, arial, sans-serif; font-size: 12px; fill: rgb(51, 51, 51); fill-opacity: 1; white-space: pre; opacity: 1;" transform="translate(202.81,0)">2010</text></g><g class="xtick"><text text-anchor="middle" x="0" y="440.4" style="font-family: 'Open Sans', verdana, arial, sans-serif; font-size: 12px; fill: rgb(51, 51, 51); fill-opacity: 1; white-space: pre; opacity: 1;" transform="translate(314.37,0)">2015</text></g><g class="xtick"><text text-anchor="middle" x="0" y="440.4" style="font-family: 'Open Sans', verdana, arial, sans-serif; font-size: 12px; fill: rgb(51, 51, 51); fill-opacity: 1; white-space: pre; opacity: 1;" transform="translate(425.93,0)">2020</text></g></g><g class="yaxislayer-above"><path class="ytick ticks crisp" d="M79,0h-5" transform="translate(0,403.21)" style="stroke: rgb(51, 51, 51); stroke-opacity: 1; stroke-width: 1px;"/><path class="ytick ticks crisp" d="M79,0h-5" transform="translate(0,343.57)" style="stroke: rgb(51, 51, 51); stroke-opacity: 1; stroke-width: 1px;"/><path class="ytick ticks crisp" d="M79,0h-5" transform="translate(0,283.94)" style="stroke: rgb(51, 51, 51); stroke-opacity: 1; stroke-width: 1px;"/><path class="ytick ticks crisp" d="M79,0h-5" transform="translate(0,224.3)" style="stroke: rgb(51, 51, 51); stroke-opacity: 1; stroke-width: 1px;"/><path class="ytick ticks crisp" d="M79,0h-5" transform="translate(0,164.66)" style="stroke: rgb(51, 51, 51); stroke-opacity: 1; stroke-width: 1px;"/><path class="ytick ticks crisp" d="M79,0h-5" transform="translate(0,105.03)" style="stroke: rgb(51, 51, 51); stroke-opacity: 1; stroke-width: 1px;"/><g class="ytick"><text text-anchor="end" x="71.6" y="4.199999999999999" transform="translate(0,403.21)" style="font-family: 'Open Sans', verdana, arial, sans-serif; font-size: 12px; fill: rgb(51, 51, 51); fill-opacity: 1; white-space: pre; opacity: 1;">0</text></g><g class="ytick"><text text-anchor="end" x="71.6" y="4.199999999999999" style="font-family: 'Open Sans', verdana, arial, sans-serif; font-size: 12px; fill: rgb(51, 51, 51); fill-opacity: 1; white-space: pre; opacity: 1;" transform="translate(0,343.57)">2k</text></g><g class="ytick"><text text-anchor="end" x="71.6" y="4.199999999999999" style="font-family: 'Open Sans', verdana, arial, sans-serif; font-size: 12px; fill: rgb(51, 51, 51); fill-opacity: 1; white-space: pre; opacity: 1;" transform="translate(0,283.94)">4k</text></g><g class="ytick"><text text-anchor="end" x="71.6" y="4.199999999999999" style="font-family: 'Open Sans', verdana, arial, sans-serif; font-size: 12px; fill: rgb(51, 51, 51); fill-opacity: 1; white-space: pre; opacity: 1;" transform="translate(0,224.3)">6k</text></g><g class="ytick"><text text-anchor="end" x="71.6" y="4.199999999999999" style="font-family: 'Open Sans', verdana, arial, sans-serif; font-size: 12px; fill: rgb(51, 51, 51); fill-opacity: 1; white-space: pre; opacity: 1;" transform="translate(0,164.66)">8k</text></g><g class="ytick"><text text-anchor="end" x="71.6" y="4.199999999999999" style="font-family: 'Open Sans', verdana, arial, sans-serif; font-size: 12px; fill: rgb(51, 51, 51); fill-opacity: 1; white-space: pre; opacity: 1;" transform="translate(0,105.03)">10k</text></g></g><g class="overaxes-above"/></g></g><g class="polarlayer"/><g class="smithlayer"/><g class="ternarylayer"/><g class="geolayer"/><g class="funnelarealayer"/><g class="pielayer"/><g class="iciclelayer"/><g class="treemaplayer"/><g class="sunburstlayer"/><g class="glimages"/><defs id="topdefs-0e0914"><g class="clips"/><clipPath id="legend0e0914"><rect width="189" height="124" x="0" y="0"/></clipPath></defs><g class="layer-above"><g class="imagelayer"/><g class="shapelayer"/></g><g class="infolayer"><g class="legend" pointer-events="all" transform="translate(499.22,100)"><rect class="bg" shape-rendering="crispEdges" style="stroke: rgb(68, 68, 68); stroke-opacity: 1; fill: rgb(255, 255, 255); fill-opacity: 1; stroke-width: 0px;" width="189" height="124" x="0" y="0"/><g class="scrollbox" transform="" clip-path="url(#legend0e0914)"><g class="groups"><g class="traces" transform="translate(0,14.5)" style="opacity: 1;"><text class="legendtext" text-anchor="start" x="40" y="4.680000000000001" style="font-family: 'Open Sans', verdana, arial, sans-serif; font-size: 12px; fill: rgb(51, 51, 51); fill-opacity: 1; white-space: pre;">LR-BACBATOTALNSAMO</text><g class="layers" style="opacity: 1;"><g class="legendfill"/><g class="legendlines"><path class="js-line" d="M5,0h30" style="fill: none; stroke: rgb(99, 110, 250); stroke-opacity: 1; stroke-width: 2px;"/></g><g class="legendsymbols"><g class="legendpoints"/></g></g><rect class="legendtoggle" x="0" y="-9.5" width="183.078125" height="19" style="fill: rgb(0, 0, 0); fill-opacity: 0;"/></g><g class="traces" transform="translate(0,33.5)" style="opacity: 1;"><text class="legendtext" text-anchor="start" x="40" y="4.680000000000001" style="font-family: 'Open Sans', verdana, arial, sans-serif; font-size: 12px; fill: rgb(51, 51, 51); fill-opacity: 1; white-space: pre;">BACBATOTALNSAMO</text><g class="layers" style="opacity: 0.3;"><g class="legendfill"/><g class="legendlines"><path class="js-line" d="M5,0h30" style="fill: none; stroke: rgb(99, 110, 250); stroke-opacity: 1; stroke-width: 2px;"/></g><g class="legendsymbols"><g class="legendpoints"/></g></g><rect class="legendtoggle" x="0" y="-9.5" width="183.078125" height="19" style="fill: rgb(0, 0, 0); fill-opacity: 0;"/></g><g class="traces" transform="translate(0,52.5)" style="opacity: 1;"><text class="legendtext" text-anchor="start" x="40" y="4.680000000000001" style="font-family: 'Open Sans', verdana, arial, sans-serif; font-size: 12px; fill: rgb(51, 51, 51); fill-opacity: 1; white-space: pre;">LR-BABATOTALNSAMO</text><g class="layers" style="opacity: 1;"><g class="legendfill"/><g class="legendlines"><path class="js-line" d="M5,0h30" style="fill: none; stroke: rgb(239, 85, 59); stroke-opacity: 1; stroke-width: 2px;"/></g><g class="legendsymbols"><g class="legendpoints"/></g></g><rect class="legendtoggle" x="0" y="-9.5" width="183.078125" height="19" style="fill: rgb(0, 0, 0); fill-opacity: 0;"/></g><g class="traces" transform="translate(0,71.5)" style="opacity: 1;"><text class="legendtext" text-anchor="start" x="40" y="4.680000000000001" style="font-family: 'Open Sans', verdana, arial, sans-serif; font-size: 12px; fill: rgb(51, 51, 51); fill-opacity: 1; white-space: pre;">BABATOTALNSAMO</text><g class="layers" style="opacity: 0.3;"><g class="legendfill"/><g class="legendlines"><path class="js-line" d="M5,0h30" style="fill: none; stroke: rgb(239, 85, 59); stroke-opacity: 1; stroke-width: 2px;"/></g><g class="legendsymbols"><g class="legendpoints"/></g></g><rect class="legendtoggle" x="0" y="-9.5" width="183.078125" height="19" style="fill: rgb(0, 0, 0); fill-opacity: 0;"/></g><g class="traces" transform="translate(0,90.5)" style="opacity: 1;"><text class="legendtext" text-anchor="start" x="40" y="4.680000000000001" style="font-family: 'Open Sans', verdana, arial, sans-serif; font-size: 12px; fill: rgb(51, 51, 51); fill-opacity: 1; white-space: pre;">LR-AVELISPRIYYMO</text><g class="layers" style="opacity: 1;"><g class="legendfill"/><g class="legendlines"><path class="js-line" d="M5,0h30" style="fill: none; stroke: rgb(0, 204, 150); stroke-opacity: 1; stroke-width: 2px;"/></g><g class="legendsymbols"><g class="legendpoints"/></g></g><rect class="legendtoggle" x="0" y="-9.5" width="183.078125" height="19" style="fill: rgb(0, 0, 0); fill-opacity: 0;"/></g><g class="traces" transform="translate(0,109.5)" style="opacity: 1;"><text class="legendtext" text-anchor="start" x="40" y="4.680000000000001" style="font-family: 'Open Sans', verdana, arial, sans-serif; font-size: 12px; fill: rgb(51, 51, 51); fill-opacity: 1; white-space: pre;">AVELISPRIYYMO</text><g class="layers" style="opacity: 0.3;"><g class="legendfill"/><g class="legendlines"><path class="js-line" d="M5,0h30" style="fill: none; stroke: rgb(0, 204, 150); stroke-opacity: 1; stroke-width: 2px;"/></g><g class="legendsymbols"><g class="legendpoints"/></g></g><rect class="legendtoggle" x="0" y="-9.5" width="183.078125" height="19" style="fill: rgb(0, 0, 0); fill-opacity: 0;"/></g></g></g><rect class="scrollbar" rx="20" ry="3" width="0" height="0" style="fill: rgb(128, 139, 164); fill-opacity: 1;" x="0" y="0"/></g><g class="g-gtitle"><text class="gtitle" x="350" y="50" text-anchor="middle" dy="0em" style="font-family: 'Open Sans', verdana, arial, sans-serif; font-size: 17px; fill: rgb(51, 51, 51); opacity: 1; font-weight: normal; white-space: pre;">Series Linear Regression</text></g><g class="g-xtitle"><text class="xtitle" x="285.5" y="468.20625" text-anchor="middle" style="font-family: 'Open Sans', verdana, arial, sans-serif; font-size: 14px; fill: rgb(51, 51, 51); opacity: 1; font-weight: normal; white-space: pre;">Date</text></g><g class="g-ytitle"><text class="ytitle" transform="rotate(-90,24.434375000000003,260)" x="24.434375000000003" y="260" text-anchor="middle" style="font-family: 'Open Sans', verdana, arial, sans-serif; font-size: 14px; fill: rgb(51, 51, 51); opacity: 1; font-weight: normal; white-space: pre;">Value</text></g></g></svg>