<svg class="main-svg" xmlns="http://www.w3.org/2000/svg" xmlns:xlink="http://www.w3.org/1999/xlink" width="700" height="500" style="" viewBox="0 0 700 500"><rect x="0" y="0" width="700" height="500" style="fill: rgb(255, 255, 255); fill-opacity: 1;"/><defs id="defs-d268d5"><g class="clips"><clipPath id="clipd268d5xyplot" class="plotclip"><rect width="430" height="320"/></clipPath><clipPath class="axesclip" id="clipd268d5x"><rect x="80" y="0" width="430" height="500"/></clipPath><clipPath class="axesclip" id="clipd268d5y"><rect x="0" y="100" width="700" height="320"/></clipPath><clipPath class="axesclip" id="clipd268d5xy"><rect x="80" y="100" width="430" height="320"/></clipPath></g><g class="gradients"/><g class="patterns"/></defs><g class="bglayer"><rect class="bg" x="80" y="100" width="430" height="320" style="fill: rgb(237, 237, 237); fill-opacity: 1; stroke-width: 0;"/></g><g class="layer-below"><g class="imagelayer"/><g class="shapelayer"/></g><g class="cartesianlayer"><g class="subplot xy"><g class="layer-subplot"><g class="shapelayer"/><g class="imagelayer"/></g><g class="gridlayer"><g class="x"><path class="xgrid crisp" transform="translate(92.32,0)" d="M0,100v320" style="stroke: rgb(255, 255, 255); stroke-opacity: 1; stroke-width: 1px;"/><path class="xgrid crisp" transform="translate(214.54,0)" d="M0,100v320" style="stroke: rgb(255, 255, 255); stroke-opacity: 1; stroke-width: 1px;"/><path class="xgrid crisp" transform="translate(336.77,0)" d="M0,100v320" style="stroke: rgb(255, 255, 255); stroke-opacity: 1; stroke-width: 1px;"/><path class="xgrid crisp" transform="translate(458.99,0)" d="M0,100v320" style="stroke: rgb(255, 255, 255); stroke-opacity: 1; stroke-width: 1px;"/></g><g class="y"><path class="ygrid crisp" transform="translate(0,344.15)" d="M80,0h430" style="stroke: rgb(255, 255, 255); stroke-opacity: 1; stroke-width: 1px;"/><path class="ygrid crisp" transform="translate(0,284.19)" d="M80,0h430" style="stroke: rgb(255, 255, 255); stroke-opacity: 1; stroke-width: 1px;"/><path class="ygrid crisp" transform="translate(0,224.23000000000002)" d="M80,0h430" style="stroke: rgb(255, 255, 255); stroke-opacity: 1; stroke-width: 1px;"/><path class="ygrid crisp" transform="translate(0,164.26999999999998)" d="M80,0h430" style="stroke: rgb(255, 255, 255); stroke-opacity: 1; stroke-width: 1px;"/><path class="ygrid crisp" transform="translate(0,104.31)" d="M80,0h430" style="stroke: rgb(255, 255, 255); stroke-opacity: 1; stroke-width: 1px;"/></g></g><g class="zerolinelayer"><path class="yzl zl crisp" transform="translate(0,404.11)" d="M80,0h430" style="stroke: rgb(255, 255, 255); stroke-opacity: 1; stroke-width: 1px;"/></g><path class="xlines-below"/><path class="ylines-below"/><g class="overlines-below"/><g class="xaxislayer-below"/><g class="yaxislayer-below"/><g class="overaxes-below"/><g class="plot" transform="translate(80,100)" clip-path="url(#clipd268d5xyplot)"><g class="scatterlayer mlayer"><g class="trace scatter trace8cea89" style="stroke-miterlimit: 2; opacity: 1;"><g class="fills"/><g class="errorbars"/><g class="lines"><path class="js-line" d="M0,284.44L2.08,284.29L4.15,285.4L6.16,280.34L8.23,285.76L10.24,282.61L12.32,282.85L14.39,280.85L16.27,271.58L18.34,279.62L20.35,282.46L22.42,277.76L24.43,284.77L26.51,282.31L28.58,284.5L30.59,282.49L32.67,277.88L34.67,280.91L36.75,281.03L38.82,279.5L40.7,271.01L42.77,279.32L44.78,271.55L46.86,282.58L48.86,283.63L50.94,279.05L53.01,283.36L55.02,284.65L57.1,282.43L63.25,280.82L65.13,272.99L67.2,283.39L69.21,280.4L71.29,277.4L73.3,284.26L75.37,278.72L77.45,286.18L79.45,289.51L81.53,287.8L83.54,290.59L85.61,289.84L87.69,286.93L89.63,289L91.7,290.62L93.71,288.4L95.79,291.28L97.79,288.76L99.87,293.05L101.94,292.75L103.95,290.44L106.03,294.31L108.04,290.38L110.11,291.76L112.19,292.18L114.06,290.14L116.13,288.58L118.14,292.87L122.23,292L124.3,293.74L126.38,292.45L128.38,293.08L130.46,294.31L132.47,292.9L134.54,293.32L136.62,292.84L138.49,292.87L140.57,290.38L142.57,293.23L144.65,294.64L146.66,292.57L148.73,294.31L150.81,293.11L152.82,294.7L154.89,294.79L156.9,293.17L158.97,294.28L161.05,294.37L165,293.08L167.01,296.17L169.08,296.17L171.09,293.68L173.16,296.35L175.24,293.92L177.25,296.47L179.32,295.66L181.33,293.98L183.41,296.05L185.48,295.06L187.42,291.13L189.5,294.28L191.51,295.27L193.58,293.95L195.59,296.47L197.66,293.59L199.74,297.04L201.75,295.18L203.82,296.08L205.83,293.98L207.9,293.71L209.98,295.66L211.85,294.61L213.93,297.07L215.94,296.26L218.01,297.57L220.02,296.5L222.1,297.1L224.17,296.86L226.18,295.27L228.25,298.14L230.26,296.77L232.34,293.83L234.41,295.99L236.29,295.42L238.36,296.41L240.37,294.73L242.44,296.86L244.45,294.88L246.53,296.2L248.6,296.56L250.61,294.49L252.69,296.5L256.77,294.13L258.84,294.91L260.72,294.79L262.79,293.2L264.8,296.26L266.88,296.62L268.88,296.08L270.96,296.95L273.03,294.76L275.04,297.72L277.12,297.31L279.13,295.9L283.28,296.2L285.22,292.06L287.29,295.9L289.3,296.14L293.38,296.74L295.46,294.88L297.53,296.89L299.54,297.07L301.62,295.15L303.62,297.07L305.7,295.48L307.77,296.02L309.65,293.11L311.72,296.5L313.73,294.46L315.81,296.38L317.81,297.75L319.89,294.88L321.96,295.21L323.97,296.5L326.05,294.31L328.06,297.4L330.13,292.93L332.21,295.75L334.08,292.69L336.16,296.08L338.16,294.4L340.24,295.81L342.25,297.07L344.32,294.52L346.4,297.1L348.4,297.51L350.48,294.61L352.49,297.07L354.56,294.25L356.64,295.66L358.51,295.12L360.59,295.69L362.59,294.52L364.67,295.54L366.68,297.01L368.75,289.84L370.83,296.29L372.84,294.52L374.91,297.19L376.92,297.04L378.99,293.11L381.07,296.44L389.17,297.54L391.18,293.38L393.25,296.38L395.33,294.85L397.33,296.71L399.41,296.14L401.42,296.26L403.49,292.63L405.57,295.45L407.44,291.49L409.52,294.64L411.53,294.58L413.6,294.04L415.61,296.47L417.68,295.36L419.76,293.08L421.77,295.99L423.84,296.35L425.85,292.18L427.92,294.67L430,296.62L430,296.62" style="vector-effect: non-scaling-stroke; fill: none; stroke: rgb(248, 118, 109); stroke-opacity: 1; stroke-width: 2px; opacity: 1;"/></g><g class="points"/><g class="text"/></g><g class="trace scatter trace5a0b63" style="stroke-miterlimit: 2; opacity: 1;"><g class="fills"/><g class="errorbars"/><g class="lines"><path class="js-line" d="M0,211.71L2.08,215.91L4.15,211.98L6.16,189.8L8.23,210.39L10.24,200.29L12.32,207.6L14.39,185.42L16.27,150.64L18.34,191.05L20.35,198.82L22.42,181.07L24.43,210.78L26.51,201.91L28.58,203.14L30.59,197.41L32.67,173.79L34.67,206.37L36.75,195.91L40.7,136.52L42.77,178.37L44.78,154.48L46.86,200.05L48.86,201.25L50.94,177.68L53.01,204.31L55.02,208.65L57.1,198.25L59.1,205.06L61.18,200.8L63.25,175.41L65.13,152.35L67.2,192.34L69.21,190.13L71.29,179.84L73.3,210.33L75.37,180.29L77.45,203.62L79.45,202.33L81.53,188.81L83.54,207.84L85.61,202L87.69,159.46L89.63,182.39L91.7,188.63L93.71,173.46L95.79,207.03L97.79,189.11L99.87,204.88L101.94,207.63L103.95,193.12L106.03,218.37L108.04,207.36L112.19,200.14L114.06,190.61L116.13,173.82L118.14,207.51L120.22,210.81L122.23,193.09L124.3,213.21L126.38,191.92L128.38,213.81L130.46,210.45L132.47,205.48L134.54,206.17L136.62,187.46L138.49,188.03L140.57,167.61L142.57,197.38L144.65,208.71L146.66,191.68L148.73,210.03L150.81,185.45L152.82,209.13L154.89,204.82L156.9,202.03L158.97,192.22L161.05,187.49L162.92,186.17L165,165.36L167.01,213.54L169.08,204.4L171.09,183.89L173.16,207.57L175.24,189.23L177.25,214.41L179.32,207.09L181.33,190.73L183.41,208.47L187.42,151.36L189.5,188.9L191.51,196.06L193.58,180.98L195.59,211.14L197.66,182.06L199.74,210.18L201.75,209.88L203.82,196.54L205.83,196.66L207.9,156.88L209.98,187.73L211.85,184.76L213.93,198.04L215.94,183.62L218.01,205.81L220.02,182.69L222.1,202.96L224.17,212.13L226.18,186.8L228.25,212.76L230.26,220.2L232.34,172.53L234.41,185.81L236.29,182.81L238.36,191.17L240.37,178.73L242.44,205.87L244.45,190.25L246.53,204.55L248.6,206.49L250.61,184.73L252.69,212.46L254.69,210.27L256.77,165.18L258.84,178.76L260.72,179.75L262.79,157.81L264.8,197.32L266.88,199.45L268.88,176.69L270.96,198.07L273.03,174.09L275.04,201.7L277.12,208.83L279.13,196.42L281.2,163.53L283.28,163.53L285.22,137.51L287.29,172.05L289.3,181.34L291.37,174L293.38,190.4L295.46,152.83L297.53,191.5L299.54,200.14L301.62,173.16L303.62,204.82L305.7,158.8L307.77,157.12L309.65,117.24L311.72,169.56L313.73,147.91L315.81,182.36L317.81,190.13L319.89,149.56L321.96,183.83L323.97,180.95L326.05,157.39L328.06,206.14L330.13,138.77L332.21,148.57L334.08,100.51L336.16,158.26L338.16,138.62L340.24,165.27L342.25,181.25L344.32,134.93L346.4,177.71L348.4,181.82L350.48,167.22L352.49,192.73L354.56,118.74L356.64,139.61L358.51,143.96L360.59,155.56L362.59,136.28L364.67,172.44L366.68,178.1L368.75,119.34L370.83,177.35L372.84,152.89L374.91,197.11L376.92,195.07L378.99,118.62L381.07,148L383.01,169.38L385.09,146.35L387.09,149.32L389.17,149.08L391.18,34.17L393.25,95.84L395.33,89.87L397.33,140.63L399.41,159.64L401.42,152.65L403.49,60.28L405.57,101.59L407.44,16L409.52,51.83L411.53,81.87L413.6,70.08L415.61,131.21L417.68,129.6L419.76,85.88L421.77,135.5L423.84,149.47L425.85,116.04L427.92,72.9L430,96.95" style="vector-effect: non-scaling-stroke; fill: none; stroke: rgb(163, 165, 0); stroke-opacity: 1; stroke-width: 2px; opacity: 1;"/></g><g class="points"/><g class="text"/></g><g class="trace scatter tracea0fc9a" style="stroke-miterlimit: 2; opacity: 1;"><g class="fills"/><g class="errorbars"/><g class="lines"><path class="js-line" d="M317.81,303.8L403.49,303.51L405.57,303.49L427.92,303.87L427.92,303.87" style="vector-effect: non-scaling-stroke; fill: none; stroke: rgb(0, 191, 125); stroke-opacity: 1; stroke-width: 2px; opacity: 1;"/></g><g class="points"/><g class="text"/></g></g></g><g class="overplot"/><path class="xlines-above crisp" d="" style="fill: none; stroke-width: 1px; stroke: rgb(0, 0, 0); stroke-opacity: 0;"/><path class="ylines-above crisp" d="" style="fill: none; stroke-width: 1px; stroke: rgb(0, 0, 0); stroke-opacity: 0;"/><g class="overlines-above"/><g class="xaxislayer-above"><path class="xtick ticks crisp" d="M0,421v5" transform="translate(92.32,0)" style="stroke: rgb(51, 51, 51); stroke-opacity: 1; stroke-width: 1px;"/><path class="xtick ticks crisp" d="M0,421v5" transform="translate(214.54,0)" style="stroke: rgb(51, 51, 51); stroke-opacity: 1; stroke-width: 1px;"/><path class="xtick ticks crisp" d="M0,421v5" transform="translate(336.77,0)" style="stroke: rgb(51, 51, 51); stroke-opacity: 1; stroke-width: 1px;"/><path class="xtick ticks crisp" d="M0,421v5" transform="translate(458.99,0)" style="stroke: rgb(51, 51, 51); stroke-opacity: 1; stroke-width: 1px;"/><g class="xtick"><text text-anchor="middle" x="0" y="440.4" transform="translate(92.32,0)" style="font-family: 'Open Sans', verdana, arial, sans-serif; font-size: 12px; fill: rgb(51, 51, 51); fill-opacity: 1; white-space: pre; opacity: 1;">2005</text></g><g class="xtick"><text text-anchor="middle" x="0" y="440.4" style="font-family: 'Open Sans', verdana, arial, sans-serif; font-size: 12px; fill: rgb(51, 51, 51); fill-opacity: 1; white-space: pre; opacity: 1;" transform="translate(214.54,0)">2010</text></g><g class="xtick"><text text-anchor="middle" x="0" y="440.4" style="font-family: 'Open Sans', verdana, arial, sans-serif; font-size: 12px; fill: rgb(51, 51, 51); fill-opacity: 1; white-space: pre; opacity: 1;" transform="translate(336.77,0)">2015</text></g><g class="xtick"><text text-anchor="middle" x="0" y="440.4" style="font-family: 'Open Sans', verdana, arial, sans-serif; font-size: 12px; fill: rgb(51, 51, 51); fill-opacity: 1; white-space: pre; opacity: 1;" transform="translate(458.99,0)">2020</text></g></g><g class="yaxislayer-above"><path class="ytick ticks crisp" d="M79,0h-5" transform="translate(0,404.11)" style="stroke: rgb(51, 51, 51); stroke-opacity: 1; stroke-width: 1px;"/><path class="ytick ticks crisp" d="M79,0h-5" transform="translate(0,344.15)" style="stroke: rgb(51, 51, 51); stroke-opacity: 1; stroke-width: 1px;"/><path class="ytick ticks crisp" d="M79,0h-5" transform="translate(0,284.19)" style="stroke: rgb(51, 51, 51); stroke-opacity: 1; stroke-width: 1px;"/><path class="ytick ticks crisp" d="M79,0h-5" transform="translate(0,224.23000000000002)" style="stroke: rgb(51, 51, 51); stroke-opacity: 1; stroke-width: 1px;"/><path class="ytick ticks crisp" d="M79,0h-5" transform="translate(0,164.26999999999998)" style="stroke: rgb(51, 51, 51); stroke-opacity: 1; stroke-width: 1px;"/><path class="ytick ticks crisp" d="M79,0h-5" transform="translate(0,104.31)" style="stroke: rgb(51, 51, 51); stroke-opacity: 1; stroke-width: 1px;"/><g class="ytick"><text text-anchor="end" x="71.6" y="4.199999999999999" transform="translate(0,404.11)" style="font-family: 'Open Sans', verdana, arial, sans-serif; font-size: 12px; fill: rgb(51, 51, 51); fill-opacity: 1; white-space: pre; opacity: 1;">0</text></g><g class="ytick"><text text-anchor="end" x="71.6" y="4.199999999999999" style="font-family: 'Open Sans', verdana, arial, sans-serif; font-size: 12px; fill: rgb(51, 51, 51); fill-opacity: 1; white-space: pre; opacity: 1;" transform="translate(0,344.15)">2k</text></g><g class="ytick"><text text-anchor="end" x="71.6" y="4.199999999999999" style="font-family: 'Open Sans', verdana, arial, sans-serif; font-size: 12px; fill: rgb(51, 51, 51); fill-opacity: 1; white-space: pre; opacity: 1;" transform="translate(0,284.19)">4k</text></g><g class="ytick"><text text-anchor="end" x="71.6" y="4.199999999999999" style="font-family: 'Open Sans', verdana, arial, sans-serif; font-size: 12px; fill: rgb(51, 51, 51); fill-opacity: 1; white-space: pre; opacity: 1;" transform="translate(0,224.23000000000002)">6k</text></g><g class="ytick"><text text-anchor="end" x="71.6" y="4.199999999999999" style="font-family: 'Open Sans', verdana, arial, sans-serif; font-size: 12px; fill: rgb(51, 51, 51); fill-opacity: 1; white-space: pre; opacity: 1;" transform="translate(0,164.26999999999998)">8k</text></g><g class="ytick"><text text-anchor="end" x="71.6" y="4.199999999999999" style="font-family: 'Open Sans', verdana, arial, sans-serif; font-size: 12px; fill: rgb(51, 51, 51); fill-opacity: 1; white-space: pre; opacity: 1;" transform="translate(0,104.31)">10k</text></g></g><g class="overaxes-above"/></g></g><g class="polarlayer"/><g class="smithlayer"/><g class="ternarylayer"/><g class="geolayer"/><g class="funnelarealayer"/><g class="pielayer"/><g class="iciclelayer"/><g class="treemaplayer"/><g class="sunburstlayer"/><g class="glimages"/><defs id="topdefs-d268d5"><g class="clips"/><clipPath id="legendd268d5"><rect width="169" height="67" x="0" y="0"/></clipPath></defs><g class="layer-above"><g class="imagelayer"/><g class="shapelayer"/></g><g class="infolayer"><g class="legend" pointer-events="all" transform="translate(518.6,100)"><rect class="bg" shape-rendering="crispEdges" style="stroke: rgb(68, 68, 68); stroke-opacity: 1; fill: rgb(255, 255, 255); fill-opacity: 1; stroke-width: 0px;" width="169" height="67" x="0" y="0"/><g class="scrollbox" transform="" clip-path="url(#legendd268d5)"><g class="groups"><g class="traces" transform="translate(0,14.5)" style="opacity: 1;"><text class="legendtext" text-anchor="start" x="40" y="4.680000000000001" style="font-family: 'Open Sans', verdana, arial, sans-serif; font-size: 12px; fill: rgb(51, 51, 51); fill-opacity: 1; white-space: pre;">BACBATOTALNSAMO</text><g class="layers" style="opacity: 1;"><g class="legendfill"/><g class="legendlines"><path class="js-line" d="M5,0h30" style="fill: none; stroke: rgb(248, 118, 109); stroke-opacity: 1; stroke-width: 2px;"/></g><g class="legendsymbols"><g class="legendpoints"/></g></g><rect class="legendtoggle" x="0" y="-9.5" width="163.1875" height="19" style="fill: rgb(0, 0, 0); fill-opacity: 0;"/></g><g class="traces" transform="translate(0,33.5)" style="opacity: 1;"><text class="legendtext" text-anchor="start" x="40" y="4.680000000000001" style="font-family: 'Open Sans', verdana, arial, sans-serif; font-size: 12px; fill: rgb(51, 51, 51); fill-opacity: 1; white-space: pre;">BABATOTALNSAMO</text><g class="layers" style="opacity: 1;"><g class="legendfill"/><g class="legendlines"><path class="js-line" d="M5,0h30" style="fill: none; stroke: rgb(163, 165, 0); stroke-opacity: 1; stroke-width: 2px;"/></g><g class="legendsymbols"><g class="legendpoints"/></g></g><rect class="legendtoggle" x="0" y="-9.5" width="163.1875" height="19" style="fill: rgb(0, 0, 0); fill-opacity: 0;"/></g><g class="traces" transform="translate(0,52.5)" style="opacity: 1;"><text class="legendtext" text-anchor="start" x="40" y="4.680000000000001" style="font-family: 'Open Sans', verdana, arial, sans-serif; font-size: 12px; fill: rgb(51, 51, 51); fill-opacity: 1; white-space: pre;">AVELISPRIYYMO</text><g class="layers" style="opacity: 1;"><g class="legendfill"/><g class="legendlines"><path class="js-line" d="M5,0h30" style="fill: none; stroke: rgb(0, 191, 125); stroke-opacity: 1; stroke-width: 2px;"/></g><g class="legendsymbols"><g class="legendpoints"/></g></g><rect class="legendtoggle" x="0" y="-9.5" width="163.1875" height="19" style="fill: rgb(0, 0, 0); fill-opacity: 0;"/></g></g></g><rect class="scrollbar" rx="20" ry="3" width="0" height="0" style="fill: rgb(128, 139, 164); fill-opacity: 1;" x="0" y="0"/></g><g class="g-gtitle"><text class="gtitle" x="350" y="50" text-anchor="middle" dy="0em" style="font-family: 'Open Sans', verdana, arial, sans-serif; font-size: 17px; fill: rgb(51, 51, 51); opacity: 1; font-weight: normal; white-space: pre;">Series Over Time</text></g><g class="g-xtitle"><text class="xtitle" x="295" y="468.20625" text-anchor="middle" style="font-family: 'Open Sans', verdana, arial, sans-serif; font-size: 14px; fill: rgb(51, 51, 51); opacity: 1; font-weight: normal; white-space: pre;">Date</text></g><g class="g-ytitle"><text class="ytitle" transform="rotate(-90,24.434375000000003,260)" x="24.434375000000003" y="260" text-anchor="middle" style="font-family: 'Open Sans', verdana, arial, sans-serif; font-size: 14px; fill: rgb(51, 51, 51); opacity: 1; font-weight: normal; white-space: pre;">Value</text></g></g></svg>